<svg xmlns="http://www.w3.org/2000/svg" xmlns:xlink="http://www.w3.org/1999/xlink" viewBox="0 0 564.59 348.16"><defs><style>.cls-1{isolation:isolate;}.cls-2{fill:#cfe4ff;}.cls-3{fill:#5e3c69;}.cls-4{fill:#69b78b;}.cls-5,.cls-8{fill:#f7b9b9;}.cls-17,.cls-20,.cls-5{opacity:0.32;mix-blend-mode:multiply;}.cls-6{fill:#cd4b76;}.cls-7{fill:#5b89c2;}.cls-9{fill:#fff;}.cls-10{fill:url(#Degradado_sin_nombre_2);}.cls-11{fill:url(#Degradado_sin_nombre_2-2);}.cls-12,.cls-20{fill:#ab777d;}.cls-13{fill:url(#Degradado_sin_nombre_2-3);}.cls-14{fill:url(#Degradado_sin_nombre_2-4);}.cls-15{fill:url(#Degradado_sin_nombre_2-5);}.cls-16,.cls-17{fill:#e29ea6;}.cls-18,.cls-31,.cls-36{fill:none;}.cls-18{stroke:#fff;stroke-width:0.69px;}.cls-18,.cls-36{stroke-miterlimit:10;}.cls-19{fill:url(#Degradado_sin_nombre_2-6);}.cls-21{fill:url(#Degradado_sin_nombre_2-7);}.cls-22{fill:url(#Degradado_sin_nombre_2-8);}.cls-23{fill:url(#Degradado_sin_nombre_2-9);}.cls-24{fill:url(#Degradado_sin_nombre_2-10);}.cls-25{fill:url(#Degradado_sin_nombre_2-11);}.cls-26{fill:url(#Degradado_sin_nombre_2-12);}.cls-27{fill:url(#Degradado_sin_nombre_2-13);}.cls-28{fill:url(#Degradado_sin_nombre_2-14);}.cls-29{fill:url(#Degradado_sin_nombre_2-15);}.cls-30{fill:url(#Degradado_sin_nombre_2-16);}.cls-32{fill:url(#Degradado_sin_nombre_2-17);}.cls-33{fill:url(#Degradado_sin_nombre_2-18);}.cls-34{fill:#c7857c;}.cls-35{fill:url(#Degradado_sin_nombre_2-19);}.cls-36{stroke:#cd4b76;stroke-width:3.7px;}.cls-37{fill:#f9fbfc;}.cls-38{fill:url(#Degradado_sin_nombre_2-20);}.cls-39{fill:#e6e6e6;opacity:0.49;}.cls-40{fill:#0983ac;}</style><linearGradient id="Degradado_sin_nombre_2" x1="13.21" y1="15.86" x2="74.51" y2="15.86" gradientTransform="matrix(0.1, -0.99, -0.99, -0.1, 257, 161.4)" gradientUnits="userSpaceOnUse"><stop offset="0.2" stop-color="#ffd584"/><stop offset="0.92" stop-color="#fcd271"/></linearGradient><linearGradient id="Degradado_sin_nombre_2-2" x1="171.42" y1="126.16" x2="237.43" y2="126.16" gradientTransform="matrix(1, 0, 0, 1, 0, 0)" xlink:href="#Degradado_sin_nombre_2"/><linearGradient id="Degradado_sin_nombre_2-3" x1="308.95" y1="13.81" x2="384.75" y2="13.81" gradientTransform="translate(305.65 -200.2) rotate(108.63)" xlink:href="#Degradado_sin_nombre_2"/><linearGradient id="Degradado_sin_nombre_2-4" x1="185.08" y1="82.48" x2="201.26" y2="82.48" gradientTransform="matrix(1, 0, 0, 1, 0, 0)" xlink:href="#Degradado_sin_nombre_2"/><linearGradient id="Degradado_sin_nombre_2-5" x1="199.2" y1="82.48" x2="215.38" y2="82.48" gradientTransform="matrix(1, 0, 0, 1, 0, 0)" xlink:href="#Degradado_sin_nombre_2"/><linearGradient id="Degradado_sin_nombre_2-6" x1="341.78" y1="62.94" x2="398.03" y2="62.94" gradientTransform="matrix(1, 0, 0, 1, 0, 0)" xlink:href="#Degradado_sin_nombre_2"/><linearGradient id="Degradado_sin_nombre_2-7" x1="361.74" y1="62.35" x2="368.81" y2="62.35" gradientTransform="matrix(1, 0, 0, 1, 0, 0)" xlink:href="#Degradado_sin_nombre_2"/><linearGradient id="Degradado_sin_nombre_2-8" x1="347.59" y1="60.53" x2="386.11" y2="60.53" gradientTransform="matrix(1, 0, 0, 1, 0, 0)" xlink:href="#Degradado_sin_nombre_2"/><linearGradient id="Degradado_sin_nombre_2-9" x1="929.87" y1="38.97" x2="940.14" y2="38.97" gradientTransform="matrix(-1, 0, 0, 1, 1097.64, 0)" xlink:href="#Degradado_sin_nombre_2"/><linearGradient id="Degradado_sin_nombre_2-10" x1="931.58" y1="16.33" x2="938.53" y2="16.33" gradientTransform="matrix(-1, 0, 0, 1, 1097.64, 0)" xlink:href="#Degradado_sin_nombre_2"/><linearGradient id="Degradado_sin_nombre_2-11" x1="947.94" y1="24.83" x2="963.04" y2="24.83" gradientTransform="matrix(-1, 0, 0, 1, 1097.64, 0)" xlink:href="#Degradado_sin_nombre_2"/><linearGradient id="Degradado_sin_nombre_2-12" x1="483.34" y1="45.56" x2="493.61" y2="45.56" gradientTransform="matrix(1, 0, 0, 1, 0, 0)" xlink:href="#Degradado_sin_nombre_2"/><linearGradient id="Degradado_sin_nombre_2-13" x1="485.06" y1="22.92" x2="492.01" y2="22.92" gradientTransform="matrix(1, 0, 0, 1, 0, 0)" xlink:href="#Degradado_sin_nombre_2"/><linearGradient id="Degradado_sin_nombre_2-14" x1="501.41" y1="31.41" x2="516.51" y2="31.41" gradientTransform="matrix(1, 0, 0, 1, 0, 0)" xlink:href="#Degradado_sin_nombre_2"/><linearGradient id="Degradado_sin_nombre_2-15" x1="508.42" y1="73.21" x2="546.21" y2="73.21" gradientTransform="matrix(1, 0, 0, 1, 0, 0)" xlink:href="#Degradado_sin_nombre_2"/><linearGradient id="Degradado_sin_nombre_2-16" x1="500.1" y1="59.79" x2="539.45" y2="59.79" gradientTransform="matrix(1, 0, 0, 1, 0, 0)" xlink:href="#Degradado_sin_nombre_2"/><linearGradient id="Degradado_sin_nombre_2-17" x1="49.69" y1="141.89" x2="73.46" y2="141.89" gradientTransform="matrix(1, 0, 0, 1, 0, 0)" xlink:href="#Degradado_sin_nombre_2"/><linearGradient id="Degradado_sin_nombre_2-18" x1="44.45" y1="89.34" x2="87.22" y2="89.34" gradientTransform="matrix(1, 0, 0, 1, 0, 0)" xlink:href="#Degradado_sin_nombre_2"/><linearGradient id="Degradado_sin_nombre_2-19" x1="17.9" y1="143.61" x2="48.36" y2="143.61" gradientTransform="matrix(1, 0, 0, 1, 0, 0)" xlink:href="#Degradado_sin_nombre_2"/><linearGradient id="Degradado_sin_nombre_2-20" x1="13.65" y1="140.83" x2="69.86" y2="140.83" gradientTransform="matrix(1, 0, 0, 1, 0, 0)" xlink:href="#Degradado_sin_nombre_2"/></defs><g class="cls-1"><g id="Camada_2" data-name="Camada 2"><g id="OBJECTS"><path class="cls-2" d="M60.87,97.78c-10.49,4.14-21.93,9.11-25.93,18.13C26.32,135.37,58.4,153.42,55.05,174c-2.87,17.56-28.43,24.79-42.66,38C1.08,222.53-2.93,238.08,2.2,251.5S21.4,275.75,38,279c26.06,5.11,56.24-7.19,79,4.53,16.7,8.6,23.09,27.66,40.93,34.52,19.16,7.37,41.09-2.79,58.2-13s37.44-21.61,57.65-16.5c19.49,4.93,31.84,24.07,52.2,24.87s34.57-17.25,54.19-22c19.94-4.84,40.38,4.86,60.94,7.38,29.81,3.65,61.56-9.66,75.63-31.7,3.71-5.8,6.24-12.05,8.77-18.28q6.13-15.15,12.29-30.31c5.66-14,11.39-28.22,11.69-43,.4-19.71-9.5-39.42-26.66-53.1s-41.35-21.13-65.15-20.07c-10.56.47-23,2-30-4.56-10.07-9.35,1.51-24.33-2.24-36.47-3-9.61-15.53-15.49-27.51-15.9s-23.52,3.45-34.52,7.42S341.08,61,329.09,61.37c-19.63.6-37.25-9-55.79-14.4S229.58,42.65,221,57.28c-5.37,9.22-3.55,22.71-14.71,27.13-10.89,4.33-22.26-4.75-29.37-12.82-5.19-5.89-13.84-14.82-23.78-13.17-7,1.17-16.08,9.16-22.76,11.92C107.47,79.86,84,88.64,60.87,97.78Z"/><path class="cls-3" d="M431.19,313.69c-5.05,1.58-6.8,1.44-12.13,1.1l-8.78,7.15s-10.1,7.72-9.07,10.52S430,326.21,430,326.21a4.66,4.66,0,0,0,2.86-6.4C431.8,316.84,430.85,316.33,431.19,313.69Z"/><path class="cls-3" d="M454.35,315c5.18,1.12,6.91.82,12.18,0l9.4,6.32s10.77,6.76,10,9.64-29.27-3.57-29.27-3.57a4.67,4.67,0,0,1-3.44-6.11C454,318.21,454.93,317.62,454.35,315Z"/><path class="cls-4" d="M422,169.18l-6.51,146.59s16.41,2.54,18.11-2,14.15-137.25,14.15-137.25Z"/><path class="cls-5" d="M422.27,173.42l-6.79,142.35s16.41,2.54,18.11-2,14.15-135.27,14.15-135.27Z"/><path class="cls-4" d="M475.75,176.25l-3.67,140.08s-18.12,3.11-19.81,0-6.23-116-6.23-116l-6.23-9.9L424,169.46Z"/><path class="cls-6" d="M472.44,157.38c-1,7.34-2.23,14.76-1.28,22.1a54.92,54.92,0,0,1-35.87.33c-3.89-1.32-7.83-3.24-10.11-6.66-3.32-5-2.27-11.56-1-17.42q5.42-25.74,12.08-51.22c.95-3.62,2-8.84,4.43-11.74,3.95-4.81,10.51-4.66,16.43-4.19,3.8.3,9.59-3.2,12.72-.62,4.12,3.38,4,15.08,4.3,19.79q.72,11.64.4,23.29A263.52,263.52,0,0,1,472.44,157.38Z"/><polygon class="cls-7" points="490.19 100.41 503.49 150.78 477.74 173.42 490.19 100.41"/><polygon class="cls-3" points="490.19 100.41 503.49 150.78 477.74 173.42 490.19 100.41"/><polygon class="cls-3" points="430.53 90.53 397.9 143.43 442.98 163.54 430.53 90.53"/><path class="cls-8" d="M478.27,57.7A3.62,3.62,0,0,1,480,60.83a8.53,8.53,0,0,1-5.72,8.61c-1.06.34-2.4.39-3.12-.47s-.44-2.19,0-3.25C472,63.66,475.14,56.29,478.27,57.7Z"/><path class="cls-3" d="M478.86,60.74a2.6,2.6,0,0,0-1.38.44,6.35,6.35,0,0,0-2.43,2.52A10.77,10.77,0,0,0,474,67a5.17,5.17,0,0,0-.12,1.44,6.32,6.32,0,0,0,.39-1.39,13.23,13.23,0,0,1,1.16-3.19,6.93,6.93,0,0,1,2.24-2.47C478.34,60.93,478.88,60.8,478.86,60.74Z"/><path class="cls-3" d="M475,67.81c.05,0,.24-.19.5-.58a5.78,5.78,0,0,0,.78-1.65,3.22,3.22,0,0,0,0-1.86c-.16-.46-.39-.67-.42-.64s.08.28.16.71a3.71,3.71,0,0,1-.09,1.69,9.35,9.35,0,0,1-.65,1.62C475.1,67.51,475,67.78,475,67.81Z"/><path class="cls-8" d="M439.78,57.7A3.64,3.64,0,0,0,438,60.83a8.54,8.54,0,0,0,5.72,8.61c1.07.34,2.4.39,3.12-.47s.44-2.19,0-3.25C446.07,63.66,442.91,56.29,439.78,57.7Z"/><path class="cls-3" d="M439.19,60.74a2.6,2.6,0,0,1,1.38.44A6.29,6.29,0,0,1,443,63.7,10.5,10.5,0,0,1,444.1,67a4.36,4.36,0,0,1,.12,1.44,7.61,7.61,0,0,1-.38-1.39,13.31,13.31,0,0,0-1.17-3.19,6.92,6.92,0,0,0-2.23-2.47C439.71,60.93,439.17,60.8,439.19,60.74Z"/><path class="cls-3" d="M443,67.81s-.23-.19-.49-.58a5.77,5.77,0,0,1-.79-1.65,3.31,3.31,0,0,1,0-1.86c.16-.46.39-.67.43-.64s-.09.28-.17.71a4,4,0,0,0,.09,1.69,10.22,10.22,0,0,0,.65,1.62C443,67.51,443.07,67.78,443,67.81Z"/><path class="cls-8" d="M452.08,76.37l-.65,10.18a4.93,4.93,0,0,0,4.92,5.25h2.4a4.94,4.94,0,0,0,4.9-4.35l1.81-15.07Z"/><path class="cls-5" d="M464,84.76l1.49-12.38-13.38,4L451.46,86A26.69,26.69,0,0,0,464,84.76Z"/><path class="cls-8" d="M444,68.48a15.13,15.13,0,0,0,4.48,9.34c4.69,4.54,10.42,4.7,16.19,2.28,4.79-2,7.11-4.54,7.79-9.71.71-5.36,2.2-10.67.2-15.88a14.63,14.63,0,0,0-5.26-6.73,30.21,30.21,0,0,0-7-3.48c-4.1-1.6-10.2-3.62-13.57,1.23-3.88,5.59-3.36,16.26-2.86,22.71A1.94,1.94,0,0,1,444,68.48Z"/><path class="cls-3" d="M467.59,67.89c2.07-1.25,1.75-7,3.54-7.72a1.26,1.26,0,0,1,1.52.8,3.73,3.73,0,0,1,.06,1.88c-.52,3.7,1.64,8,.64,11.59-1.1,4-7,7.23-10.58,8.35a19.59,19.59,0,0,1-14.14-1,11.81,11.81,0,0,1-4.95-4.07c-1.26-2-2.44-7.41.06-9a5.07,5.07,0,0,1,.78-5.41,5.34,5.34,0,0,1,0-5.13c1.68,2.09,1,5.93,2.37,8.14,1.73,2.78,7.24,3.26,10.17,3.23S465.06,69.41,467.59,67.89Z"/><path class="cls-3" d="M467.75,56.7c.13-.06,0-.41-.49-.85a6,6,0,0,0-2.48-1.22,7.46,7.46,0,0,0-2.95-.15c-.75.13-1.13.34-1.08.45s1.78,0,3.65.54S467.47,56.85,467.75,56.7Z"/><path class="cls-3" d="M454.81,55.2c0-.11-.54-.2-1.37-.15a11.92,11.92,0,0,0-3,.58,6,6,0,0,0-2.26,1.24c-.41.42-.3.74-.08.75s.54-.16,1.06-.39,1.31-.55,2.2-.86C453.11,55.75,454.86,55.45,454.81,55.2Z"/><path class="cls-3" d="M452,62.82c-.57,0-1.11-.75-1-1.67s.75-1.65,1.32-1.63.82.77.74,1.67S452.53,62.82,452,62.82Z"/><path class="cls-3" d="M457.82,59.48c-.17.91-.27,1.81-.37,2.71l-.28,2.68-.07.67,0,.33a1,1,0,0,1-.05.18.62.62,0,0,1-.27.29.72.72,0,0,1-.22.08,1,1,0,0,0-.47.25,1.16,1.16,0,0,0-.37.85,1.51,1.51,0,0,0,.21.79,2.61,2.61,0,0,0,1.1.92,3.58,3.58,0,0,1-.68-1.11.81.81,0,0,1,.21-.88.29.29,0,0,1,.14,0,1.73,1.73,0,0,0,.43-.12,1.47,1.47,0,0,0,.71-.62A1.33,1.33,0,0,0,458,66l0-.35.08-.68a19.58,19.58,0,0,0,.08-2.76A13.38,13.38,0,0,0,457.82,59.48Z"/><path class="cls-9" d="M454.78,73.36c.09,0,.32.16.76.4a5.12,5.12,0,0,0,1.94.59,6.3,6.3,0,0,0,2.18-.2c.56-.14.9-.28,1-.22s-.22.29-.81.54a5.31,5.31,0,0,1-2.49.38A3.94,3.94,0,0,1,455.2,74C454.8,73.68,454.71,73.4,454.78,73.36Z"/><path class="cls-3" d="M461,62.37a3.21,3.21,0,0,1,1.43-.95,3.7,3.7,0,0,1,1.59-.11,5.87,5.87,0,0,1,1.58.47,5.05,5.05,0,0,1,1.42.93l.06,0a.15.15,0,0,0,.21,0c.22-.19.08-.45-.2-.36l.26.06A3.61,3.61,0,0,0,466,61a4.27,4.27,0,0,0-1.89-.65,3.26,3.26,0,0,0-2,.41A2.38,2.38,0,0,0,461,62.37Z"/><path class="cls-3" d="M468.05,51l-.41,0c-9.15,1.1-17.47.82-24.95-5.41a6.88,6.88,0,0,1-2.77-4.06c-.21-1.66,1.16-3.57,2.81-3.28a3.74,3.74,0,0,1,1-4.44l10.66-.19a4.42,4.42,0,0,1,2.93-5.22c-.12,2.86,2.55,5.1,5.25,6s5.66,1.12,8.22,2.38a7.44,7.44,0,0,1,3.77,8.64C473.65,49.3,471.42,50.56,468.05,51Z"/><path class="cls-3" d="M470.86,40.27c2.73.36,4.67,2.9,5.61,5.49A15.93,15.93,0,0,1,475.79,58c-.41.82-.88,1.61-1.36,2.39-.84,1.39-2.6,5.54-4,2.75-.44-.85.19-3.43.18-4.45a27.66,27.66,0,0,0-.39-4.45c-.67-3.68-2.46-7.32-5.56-9.42a11.13,11.13,0,0,0-9.6-1.28,12,12,0,0,0-7.12,6.64c-2.12,5-.8,10.88-2.8,15.9,1-2.41-2.22-5.36-3.39-7.16a12.88,12.88,0,0,1-1.92-7.34c.08-3.75,1.1-8.52,3.51-11.46,2.19-2.67,8.91-1.55,11.08.78"/><path class="cls-3" d="M469.81,88l20.38,12.45L479.43,206.25s-12.17-4.53-13.3-8.49S469.81,88,469.81,88Z"/><path class="cls-3" d="M446.23,89.37l-19.15,97.35s-3.11,9.06-9.06,9.91,12.7-106.38,12.7-106.38Z"/><path class="cls-5" d="M454.5,164.44a36.46,36.46,0,0,1,5.56.66c1.72.47,3.06,1.65,2.22,2.62s-3,1.09-4.82,1.1q-3.09,0-6.16-.13c-4.85-.21-10.11-.82-13.18-3-1.92-1.34-2.69-3.18-2-4.87a5.36,5.36,0,0,1,3.67-3.17c2.82-.5,3,.74,4,1.86A16.71,16.71,0,0,0,454.5,164.44Z"/><polygon class="cls-3" points="451.43 86.55 439.73 88.71 434.87 145.44 451.43 86.55"/><polygon class="cls-5" points="451.43 86.55 439.73 88.71 434.87 145.44 451.43 86.55"/><polygon class="cls-3" points="463.65 87.45 467.05 155.62 477.24 92.42 469.13 86.63 463.65 87.45"/><polygon class="cls-5" points="463.65 87.45 467.05 155.62 477.93 92.42 469.13 86.63 463.65 87.45"/><path class="cls-3" d="M225.89,308.33c5.14,1.61,6.92,1.47,12.34,1.12l8.94,7.29s10.28,7.86,9.24,10.7-29.34-6.36-29.34-6.36a4.75,4.75,0,0,1-2.91-6.52C225.27,311.54,226.23,311,225.89,308.33Z"/><path class="cls-3" d="M201.68,309.12c-5.27,1.14-7,.83-12.4,0l-9.57,6.44s-11,6.88-10.18,9.8,29.8-3.62,29.8-3.62a4.76,4.76,0,0,0,3.5-6.23C202,312.38,201.09,311.78,201.68,309.12Z"/><path class="cls-8" d="M303.52,145.82a13.16,13.16,0,0,1,1.35.55c.69.33,2.3.74,2.66,1.48,0,.06.54,1.83,0,1.59,3.66,1.66-.74,3.61-2.52,4a30.7,30.7,0,0,1-13.74-.61c-3.28-1.1-9.77-3.57-8.18-8.21,2.14-6.24,12.61-4.61,17.53-4.31-.59,2.05-2.43,2.45-4,3.46C298.05,144.47,302.06,145.29,303.52,145.82Z"/><path class="cls-10" d="M225.34,83.16l5,6.24,19.11,27.78,41.43,22S288.09,151.94,285,151s-51.16-20.42-51.16-20.42L201.45,86Z"/><polygon class="cls-5" points="202.51 87.03 215.11 86.73 238.69 123.01 285 151.03 233.84 130.61 202.51 87.03"/><path class="cls-7" d="M234.62,160.66l6.63,149.23s-16.71,2.59-18.44-2-14.4-139.72-14.4-139.72Z"/><path class="cls-5" d="M234.62,160.66l6.63,149.23s-16.71,2.59-18.44-2-14.4-139.72-14.4-139.72Z"/><path class="cls-7" d="M179.89,167.86l3.74,142.61s18.44,3.16,20.17,0,6.33-118.12,6.33-118.12l6.34-10.09L232.61,161Z"/><path class="cls-11" d="M225.34,83.16c-2.84-.55-4.64-2.85-7.64-3.4a51.76,51.76,0,0,0-11-.47c-6.81,0-12.23,2.23-19.11,1.78-1.07-.07-4.75,1.8-5.79,2.09-3.26.9-2.83,3.53-5,6.06-1.22,1.43-5.42,14.66-5.35,16.39.66,21-.69,42.41,2.45,63.13.15,1,6.25,2.53,7.2,2.79a39.91,39.91,0,0,0,8.12,1.41c5.11.36,10.45.06,15.59-.05,11-.22,22.19-1.36,32.65-4.91-.57-6.18-.26-12.65-.92-18.94-.48-4.62-1-9.23-1.68-13.82-2.31-16.07-5.06-32.08-8-48C226.59,85.76,225.57,84.54,225.34,83.16Z"/><path class="cls-8" d="M180.45,50.55a3.72,3.72,0,0,0-1.81,3.19,8.69,8.69,0,0,0,5.82,8.77c1.09.35,2.45.4,3.18-.48s.45-2.23,0-3.31C186.84,56.63,183.63,49.12,180.45,50.55Z"/><path class="cls-3" d="M179.84,53.65a2.68,2.68,0,0,1,1.41.45,6.45,6.45,0,0,1,2.47,2.57A10.59,10.59,0,0,1,184.84,60a4.54,4.54,0,0,1,.12,1.47,8,8,0,0,1-.39-1.41,13.37,13.37,0,0,0-1.19-3.25,7,7,0,0,0-2.27-2.52C180.37,53.85,179.82,53.71,179.84,53.65Z"/><path class="cls-3" d="M183.74,60.85s-.24-.2-.5-.59a5.85,5.85,0,0,1-.8-1.68,3.23,3.23,0,0,1,0-1.89c.16-.47.39-.69.43-.66s-.09.29-.17.73a4.16,4.16,0,0,0,.09,1.72,9.66,9.66,0,0,0,.67,1.65C183.68,60.55,183.79,60.82,183.74,60.85Z"/><path class="cls-8" d="M219.62,50.55a3.72,3.72,0,0,1,1.81,3.19,8.69,8.69,0,0,1-5.82,8.77c-1.09.35-2.45.4-3.18-.48s-.45-2.23,0-3.31C213.23,56.63,216.44,49.12,219.62,50.55Z"/><path class="cls-3" d="M220.23,53.65a2.65,2.65,0,0,0-1.41.45,6.45,6.45,0,0,0-2.47,2.57A10.59,10.59,0,0,0,215.23,60a4.54,4.54,0,0,0-.12,1.47,8,8,0,0,0,.39-1.41,13.37,13.37,0,0,1,1.19-3.25A7,7,0,0,1,219,54.33C219.7,53.85,220.25,53.71,220.23,53.65Z"/><path class="cls-3" d="M216.33,60.85s.24-.2.5-.59a5.85,5.85,0,0,0,.8-1.68,3.23,3.23,0,0,0,0-1.89c-.16-.47-.39-.69-.43-.66s.09.29.17.73a4.16,4.16,0,0,1-.09,1.72,9.66,9.66,0,0,1-.67,1.65C216.39,60.55,216.28,60.82,216.33,60.85Z"/><path class="cls-8" d="M207.11,68.43l-13.62-2.92L194.6,78c.3,1.82,3.12,4.51,5.66,4.51h2.44c2.9,0,6-2.42,5.79-4.51Z"/><path class="cls-5" d="M195,78.11l-1.51-12.6,13.62,4,.63,9.85A27.27,27.27,0,0,1,195,78.11Z"/><path class="cls-8" d="M215.38,61.53A15.38,15.38,0,0,1,210.82,71c-4.77,4.62-10.6,4.79-16.48,2.32-4.88-2.06-7.24-4.62-7.93-9.88-.72-5.46-2.24-10.87-.2-16.17a14.9,14.9,0,0,1,5.35-6.85,30.76,30.76,0,0,1,7.12-3.55c4.17-1.62,10.38-3.68,13.81,1.26,3.95,5.69,3.42,16.55,2.91,23.12A1.94,1.94,0,0,1,215.38,61.53Z"/><path class="cls-12" d="M191.16,49.54c-.13-.06,0-.42.5-.86a6.07,6.07,0,0,1,2.52-1.25,7.38,7.38,0,0,1,3-.15c.75.13,1.14.35,1.09.46s-1.81,0-3.72.55S191.44,49.69,191.16,49.54Z"/><path class="cls-12" d="M204.33,48c0-.12.55-.21,1.39-.16a12,12,0,0,1,3.1.59,6.07,6.07,0,0,1,2.3,1.26c.41.43.31.75.08.77s-.55-.17-1.08-.4-1.33-.56-2.24-.87C206.06,48.57,204.28,48.27,204.33,48Z"/><path class="cls-3" d="M207.23,55.77c.58,0,1.13-.76,1.05-1.7s-.77-1.68-1.34-1.66-.84.78-.76,1.7S206.65,55.77,207.23,55.77Z"/><path class="cls-3" d="M194.4,56.51c.57.1,1.25-.55,1.34-1.49s-.45-1.79-1-1.87-1,.61-1.05,1.53S193.83,56.4,194.4,56.51Z"/><path class="cls-3" d="M201.26,52.36c.17.94.28,1.85.38,2.77l.29,2.73.07.68,0,.34a.61.61,0,0,0,.05.18.58.58,0,0,0,.27.29.79.79,0,0,0,.23.09,1.08,1.08,0,0,1,.85,1.11,1.49,1.49,0,0,1-.21.81,2.78,2.78,0,0,1-1.12.94,3.74,3.74,0,0,0,.69-1.14.82.82,0,0,0-.21-.89.33.33,0,0,0-.15,0,1.93,1.93,0,0,1-.44-.12,1.56,1.56,0,0,1-.72-.63,1.45,1.45,0,0,1-.17-.48l0-.35L201,58a18.81,18.81,0,0,1-.08-2.81A14,14,0,0,1,201.26,52.36Z"/><path class="cls-3" d="M204.36,66.5c-.09,0-.33.16-.78.4a5,5,0,0,1-2,.6,6.83,6.83,0,0,1-2.22-.19,4,4,0,0,0-1-.24c0,.05.22.31.81.56a5.3,5.3,0,0,0,2.54.38,4,4,0,0,0,2.16-.83C204.34,66.83,204.43,66.54,204.36,66.5Z"/><path class="cls-3" d="M207.65,64.85l-11.22.47s-.63,4.49,3.94,4.93C206.66,70.86,207.65,64.85,207.65,64.85Z"/><path class="cls-6" d="M201.43,67.64a5.68,5.68,0,0,0-4.62.18l0,0a4,4,0,0,0,3.6,2.41,7,7,0,0,0,3.58-.5A5.31,5.31,0,0,0,201.43,67.64Z"/><path class="cls-12" d="M190.73,44.54a7.46,7.46,0,0,0,3.45-.12,1.51,1.51,0,0,1,1.42-2.35A10.33,10.33,0,0,0,206,45.28a1.84,1.84,0,0,1,1.67-2.76q1.08,2.22,2.18,4.44a9.47,9.47,0,0,0,8.36-9.09c0-11-15.59-10.8-23.12-10-5.34.57-12,3.3-11,9.94A8.45,8.45,0,0,0,190.73,44.54Z"/><path class="cls-12" d="M188,32.82c-2.78.36-4.76,3-5.71,5.58A16.17,16.17,0,0,0,183,50.87c.41.84.9,1.64,1.38,2.44.86,1.41,2.65,5.63,4.1,2.8.44-.87-.2-3.5-.18-4.53a27.43,27.43,0,0,1,.39-4.53c.68-3.75,2.5-7.46,5.66-9.6a11.36,11.36,0,0,1,9.77-1.29,12.2,12.2,0,0,1,7.25,6.75c2.16,5.07.82,11.08,2.85,16.19-1-2.46,2.27-5.46,3.46-7.29a13.18,13.18,0,0,0,1.95-7.48c-.09-3.81-1.12-8.66-3.58-11.66-2.23-2.72-9.07-1.57-11.27.8"/><path class="cls-6" d="M179.73,83.39l6.48,88.9,9,.93-8.1-92.84S182.05,81.3,179.73,83.39Z"/><path class="cls-6" d="M224.8,80.62l6.93,88.88-8.8,2.22L218.14,80S222.21,79,224.8,80.62Z"/><path class="cls-5" d="M201.34,136.72l-12.58-31.34c-2.45-5.88-9.11-5-15.22-6.79l-.52-.15,17,41.17C193.8,138.64,197.58,137.72,201.34,136.72Z"/><path class="cls-13" d="M181.26,149.15c6.05-3.43,13.16-5.28,19-8.88l-.85-.74-12.56-31.29-7.16-24.85s-15.34,4.39-14.12,24.77C165.1,108.15,180.54,147.32,181.26,149.15Z"/><path class="cls-5" d="M212.85,79c-4.7-2.65-9,1.6-12.85,4.45-3.85-2.85-8.16-7.1-12.86-4.45a4.16,4.16,0,0,0-2.29,3.63c.09,1.55,1.32,2.78,2.55,3.71a23.66,23.66,0,0,0,8.93,4.2A9.47,9.47,0,0,1,200,84.83a9.45,9.45,0,0,1,3.66,5.69,23.59,23.59,0,0,0,8.93-4.2c1.23-.93,2.46-2.16,2.55-3.71A4.16,4.16,0,0,0,212.85,79Z"/><path class="cls-14" d="M187.38,77.13a4.14,4.14,0,0,0-2.3,3.63c.09,1.55,1.32,2.77,2.56,3.71a23.85,23.85,0,0,0,8.92,4.2,9.49,9.49,0,0,1,4.7-6.36C197.15,79.55,192.5,74.24,187.38,77.13Z"/><path class="cls-15" d="M213.08,77.13a4.13,4.13,0,0,1,2.29,3.63c-.09,1.55-1.32,2.77-2.55,3.71a23.9,23.9,0,0,1-8.93,4.2,9.44,9.44,0,0,0-4.69-6.36C203.3,79.55,208,74.24,213.08,77.13Z"/><path class="cls-3" d="M268.58,59.08c.15-5,3.42-9.54,7.65-11.92s9.27-2.81,14-2.17a20,20,0,0,1,10.19,4c4.91,4.08,6.71,11.42,5.14,17.75A24.39,24.39,0,0,1,294,81.56c-2.16,1.27-4.64,2.27-7.08,1.81s-4.67-2.87-4.23-5.41"/><path class="cls-16" d="M286.25,79.15c1.81,4.51,2.31,9.86,7,11.5,6.95,2.78,15.92,5.44,10.07,7.47-.71.25-3.06,6.71-3.7,6.31-.38-.24-18.9,13.25-19.1,12.85-.87-1.66-12.45-9.09-13-10.88-.34-1.21-6.39-6.18-6.13-7.41.34-1.69,16.69-7.68,16.87-9s-1.52-3.17-2.07-4.34l-2.85-6.09Z"/><path class="cls-17" d="M278.25,89.92l-4.87-10.41,12.87-.36,3.32,8.29A24.58,24.58,0,0,1,278.25,89.92Z"/><path class="cls-16" d="M265.37,75.85A15.77,15.77,0,0,0,268,82.7c1.33,2,3,2.66,5,3.39,6.42,2.31,15.63,1.38,18.47-7,1.13.75,2.62-.28,3.11-1.69s.14-2.52.17-3.87c0-1.11.17-2.17.14-3.3a22.74,22.74,0,0,0-1.34-8.1,13.41,13.41,0,0,0-5.15-6,29,29,0,0,0-6.74-3c-3.93-1.36-9.78-3.06-12.88,1.43-1.8,2.6-1.23,7.75-1.94,10.94C266.07,68.86,265,72.29,265.37,75.85Z"/><path class="cls-16" d="M298.29,69.11a3.57,3.57,0,0,1,1.31,3.26A8.34,8.34,0,0,1,293,80a2.87,2.87,0,0,1-3-.85c-.6-1-.14-2.19.4-3.16C291.43,74.09,295.44,67.35,298.29,69.11Z"/><path class="cls-3" d="M298.47,72.14a2.49,2.49,0,0,0-1.4.25,6.17,6.17,0,0,0-2.67,2.13,10.39,10.39,0,0,0-1.49,3.07,4.5,4.5,0,0,0-.3,1.38,7.52,7.52,0,0,0,.55-1.29,12.34,12.34,0,0,1,1.54-2.94,6.75,6.75,0,0,1,2.48-2.11C297.94,72.26,298.48,72.2,298.47,72.14Z"/><path class="cls-3" d="M293.85,78.5s.25-.16.56-.5a5.8,5.8,0,0,0,1-1.5,3.14,3.14,0,0,0,.22-1.8c-.1-.47-.29-.7-.33-.68s0,.28.07.71a3.81,3.81,0,0,1-.31,1.63,9.19,9.19,0,0,1-.83,1.48C294,78.22,293.81,78.46,293.85,78.5Z"/><path class="cls-3" d="M286.78,69.21c.13-.06,0-.4-.43-.86A5.71,5.71,0,0,0,284,67a7.17,7.17,0,0,0-2.87-.32c-.74.08-1.12.27-1.08.38s1.73.14,3.53.74S286.5,69.34,286.78,69.21Z"/><path class="cls-3" d="M281.26,78.49c-.1,0-.37.22-.87.54a6,6,0,0,1-2.23.9,7.79,7.79,0,0,1-2.61,0c-.68-.12-1.11-.25-1.17-.18s.29.33,1,.57a6.31,6.31,0,0,0,3,.2,4.73,4.73,0,0,0,2.44-1.18C281.27,78.87,281.36,78.52,281.26,78.49Z"/><path class="cls-3" d="M273.27,66c0-.12-.29-.3-.85-.43a5.73,5.73,0,0,0-2.15-.08,3.93,3.93,0,0,0-1.82.7c-.38.31-.4.62-.26.69s.4-.05.8-.15,1-.25,1.68-.36C272,66.18,273.23,66.26,273.27,66Z"/><path class="cls-3" d="M275.33,67.72a12.78,12.78,0,0,1,.19,2.69,19.93,19.93,0,0,1-.25,2.67l-.13.66,0,.17a1.42,1.42,0,0,1-.07.22,1.61,1.61,0,0,1-.89,1,1.42,1.42,0,0,1-.44.11.22.22,0,0,0-.14,0,.77.77,0,0,0-.25.84,3.42,3.42,0,0,0,.59,1.13,2.6,2.6,0,0,1-1-1,1.62,1.62,0,0,1-.15-.79,1.19,1.19,0,0,1,.4-.81,1.14,1.14,0,0,1,.48-.21.4.4,0,0,0,.19-.07.7.7,0,0,0,.29-.3.88.88,0,0,0,.09-.2l0-.11,0-.16.11-.64.45-2.6C275,69.47,275.11,68.6,275.33,67.72Z"/><path class="cls-3" d="M281.44,73.43c.46.1,1-.41,1.13-1.18a1.4,1.4,0,0,0-.78-1.57c-.48-.08-.81.48-.91,1.23S281,73.33,281.44,73.43Z"/><path class="cls-3" d="M281.83,71.36a1.81,1.81,0,0,0,1.17-.83,1.08,1.08,0,0,1-.81,1.31,1.71,1.71,0,0,0,1.65-.19,1.77,1.77,0,0,1-2.06.53"/><path class="cls-3" d="M271.32,72.74c-.48,0-1-.55-1-1.32s.52-1.43,1-1.45.73.58.72,1.34S271.79,72.71,271.32,72.74Z"/><path class="cls-3" d="M271.21,70.63a1.81,1.81,0,0,1-1-1,1.08,1.08,0,0,0,.62,1.41,1.68,1.68,0,0,1-1.6-.41,1.77,1.77,0,0,0,2,.81"/><path class="cls-3" d="M273.13,79.46l9.06-1.37a3.46,3.46,0,0,1-2.39,4.56A5.32,5.32,0,0,1,273.13,79.46Z"/><path class="cls-6" d="M278.54,80.73a4.68,4.68,0,0,1,3.73-.58h0a3.21,3.21,0,0,1-2.5,2.49,5.7,5.7,0,0,1-2.94.16A4.3,4.3,0,0,1,278.54,80.73Z"/><path class="cls-18" d="M273.55,70.86a6.15,6.15,0,1,1-5.82-6.47A6.15,6.15,0,0,1,273.55,70.86Z"/><path class="cls-18" d="M288.71,72.67a6.15,6.15,0,1,1-5.82-6.48A6.16,6.16,0,0,1,288.71,72.67Z"/><path class="cls-18" d="M272.53,72.38a5.22,5.22,0,0,1,4.83-.1"/><path class="cls-18" d="M288.42,71.92a33.38,33.38,0,0,1,8.86-3.17c.55-.11,1.31-.07,1.42.47"/><path class="cls-3" d="M274.34,64.35c3.8-.26,7.43-1.85,10.93-3.42-1,.47,7.45,8.29,8.76,8.69,4.45,1.37,5.22-4.69,5.06-8-.19-3.85-.78-7.54-4-9.8a23,23,0,0,0-25.34-.58c-2.52,1.56-7.24,5.22-5.56,8.7,1.49,3.08,6.05,4.45,9.17,4.44Z"/><path class="cls-3" d="M285.73,54.28A24.35,24.35,0,0,1,334,60.49c-.62,7.71-4.85,14.66-6.53,22.21a35,35,0,0,0,12.8,34.72,31.15,31.15,0,0,1-27-32.76c.29-4.83,1.7-9.52,2.26-14.32s.17-10-2.74-13.88-8.93-5.61-12.76-2.67c-1,.77-1.77,1.77-2.71,2.6a4.53,4.53,0,0,1-3.4,1.32,2.25,2.25,0,0,1-2-2.62"/><path class="cls-7" d="M243.77,133.37a8.92,8.92,0,0,0,4,4.46c2.11,1.13,4.77,2.37,7.2,1.79s4.19-2.67,5.63-4.73a60.27,60.27,0,0,0,8.73-18.84c1-3.79,1.64-7.87.42-11.6-.93-2.83-4.23-6.64-7.48-6.58a3.06,3.06,0,0,0-3.07,3.4c.26,2.46-.12,4.82-2.05,6.56a47.27,47.27,0,0,1-4,2.65c-1.29,1-2.4,2.48-2.09,4.06s1.7,2.57,1.72,4.06a3.42,3.42,0,0,1-1.83,2.74c-1,.6-2.11.91-3.13,1.43a8.75,8.75,0,0,0-4.46,9.26A7.69,7.69,0,0,0,243.77,133.37Z"/><path class="cls-17" d="M243.77,133.37a8.92,8.92,0,0,0,4,4.46c2.11,1.13,4.77,2.37,7.2,1.79s4.19-2.67,5.63-4.73a60.27,60.27,0,0,0,8.73-18.84c1-3.79,1.64-7.87.42-11.6-.93-2.83-4.23-6.64-7.48-6.58a3.06,3.06,0,0,0-3.07,3.4c.26,2.46-.12,4.82-2.05,6.56a47.27,47.27,0,0,1-4,2.65c-1.29,1-2.4,2.48-2.09,4.06s1.7,2.57,1.72,4.06a3.42,3.42,0,0,1-1.83,2.74c-1,.6-2.11.91-3.13,1.43a8.75,8.75,0,0,0-4.46,9.26A7.69,7.69,0,0,0,243.77,133.37Z"/><path class="cls-4" d="M285.05,326.21c1,2.75,2.13,4.88,3.13,5.72a5.78,5.78,0,0,0,6.41.84,6.27,6.27,0,0,0,2.71-5.49c0-3.36-1.72-5.24-3.1-8-1.91-3.88-2.91-8.53-4.3-12.63-.55-1.62-1.26-3.42-2.84-4.08C279.16,299.25,281.5,316.57,285.05,326.21Z"/><path class="cls-17" d="M285.05,326.21c1,2.75,2.13,4.88,3.13,5.72a5.78,5.78,0,0,0,6.41.84,6.27,6.27,0,0,0,2.71-5.49c0-3.36-1.72-5.24-3.1-8-1.91-3.88-2.91-8.53-4.3-12.63-.55-1.62-1.26-3.42-2.84-4.08C279.16,299.25,281.5,316.57,285.05,326.21Z"/><path class="cls-3" d="M301,161.9s9.27,13.13,7.13,63.55c-1.66,39.35-17.24,81-17.24,81s-10.44.67-12.7-2.63,7.25-79.52,6.23-85.79-4.54-43.55-4.54-43.55l1.35-16.83Z"/><path class="cls-17" d="M301,161.9s9.27,13.13,7.13,63.55c-1.66,39.35-17.24,81-17.24,81s-10.44.67-12.7-2.63,7.25-79.52,6.23-85.79-4.54-43.55-4.54-43.55l1.35-16.83Z"/><path class="cls-16" d="M262.13,161.25c11.61,5.75,27,1.56,39.1,0-2.91.37-6.51-32.92-7-36.29-.16-1.07-25,2.53-28,2.92a153.86,153.86,0,0,1,0,19.68C266.1,149.14,264.28,162.32,262.13,161.25Z"/><path class="cls-16" d="M264.66,251s1.32,12.51,16.83,63.62c-.38,2.21-.64,5.82,1.06,7.73s12.75-5.81,9.76-9.18c-9.42-10.6-6.06-42.3-7.54-53.94l-6.16-11.94Z"/><path class="cls-4" d="M290.57,308.79c-3.56,2.86-5,3.3-9.37,4.69L276.41,322s-5.67,9.35-4,11.27,21.13-14.05,21.13-14.05a4,4,0,0,0,.28-6C292,311.13,291.13,311,290.57,308.79Z"/><path class="cls-7" d="M301.79,105.15c.79,2.45,1.3,5,2.08,7.44s2.07,4.12.72,6.63c-.74,1.39-2.11,2.58-2.07,4.15.06,2.19,2.81,3.42,3.3,5.56.6,2.63-2.47,5.11-1.76,7.71.49,1.82,2.58,2.66,4.43,3.05a18.47,18.47,0,0,0,7.76.12,11,11,0,0,0,6.49-4.06,7.84,7.84,0,0,0,1.06-7.41c-.69-1.67-2.06-3.09-2.27-4.88-.17-1.46.48-2.88.66-4.34a9.51,9.51,0,0,0-1.49-6c-1.39-2.33-4-4-4.51-6.73a35.21,35.21,0,0,0-.67-4.09,13,13,0,0,0-3.85-5.51c-1.47-1-2.51,0-4.25-.23"/><path class="cls-3" d="M261.91,161.29a104,104,0,0,0-5.17,55.58c.37,2.15.81,6.19,1.22,8.27.51,2.58.75,5.23,1.17,7.83q1.25,7.77,2.85,15.49c1.94,9.51,4.2,19,6.69,28.33,2.55,9.61,6.17,22.43,9.34,31.86,0,0,9.57-.84,11.75-4.2s-9.17-81.27-8.3-87.57c1.7-12.35,2.24-24.92,3.26-37.34,1.56-.44,20.5-5.75,20.5-5.77q-2.55-8.37-5.08-16.74a82.5,82.5,0,0,1-36.92.91C262.77,159.05,262.33,160.16,261.91,161.29Z"/><path class="cls-17" d="M291.59,145.93a9.6,9.6,0,0,0,4.38-2.39,4,4,0,0,0,.76-4.65c0,.06-14.35,3.19-15.78,3.32-5.2.51-10.35-.2-15.48,0,1.62,2.88,7.45,4,10.46,4.56A33.34,33.34,0,0,0,291.59,145.93Z"/><path class="cls-7" d="M311.21,96.89c-.55-.7-2.88-1.12-7.07-2.53l-5.55,4.38a26.68,26.68,0,0,1-35-1.61h0c-1.05.47-4.08,1.61-3,1.51,3.65,2.37,4.12,7.22,3.14,11.46s-2.89,8.44-2.33,12.76c.42,3.23,2.2,6.12,3.07,9.26.78,2.79-2.05,7.39-1.41,9,1.05,2.69,9,2.88,11.61,3.09,5.53.43,24.67.52,27.33-5.92.92-2.24-1.48-6.45-1.46-9,0-5.3,2-11.26,3.71-16.24a83.08,83.08,0,0,1,5.75-13C310.62,99,312,97.94,311.21,96.89Z"/><path class="cls-17" d="M275.69,133.3c-.73.22-1.63.66-1.55,1.42s.87,1,1.54,1.11A20.19,20.19,0,0,0,294,129.75C290.44,126.74,279.68,132.13,275.69,133.3Z"/><path class="cls-19" d="M341.92,61.24a23.43,23.43,0,0,0,12.15,22.88l-1.66-4.44a77.78,77.78,0,0,0,24.93,4.8,20.47,20.47,0,0,0,8.53-1.16c2.66-1.14,5-3.5,5.28-6.38l5.31,3.6A30,30,0,0,0,390,50.6C376.25,36.21,344.61,37.83,341.92,61.24Z"/><path class="cls-4" d="M334.61,150.32a21.61,21.61,0,0,1,12.32-3.66,46,46,0,0,1-1.71-14.7c.19-5.76,2.19-11.73,6.59-15.46,3.05-2.59,6.47-6.82,7.25-10.74.87-4.43-3.91-9.35-8.13-10-4.56-.69-6.19,2.4-8.15,5.67-5.26,8.72-9.57,21.74-10,31.91A57.38,57.38,0,0,0,334.61,150.32Z"/><path class="cls-12" d="M382.45,249.16s-.06,11.56-20,63.74c.24,2.33.4,7.26-1.52,9.13s-11.88-6.24-9.5-10.29c9.38-16,11.73-50.57,14.13-62.61l5-5.11Z"/><path class="cls-12" d="M397.84,182.05s.32,3,.29,9.95c0,11.21-3.44,26.82-4.88,31.69-2.34,7.9-27.09,79.18-27.09,79.18s-9.27,1.68-8.33-4.17c2.77-17.36,15.72-109.91,15.72-109.91Z"/><path class="cls-20" d="M397.84,182.05l-27.53,11.33s-6.51,83.42-13.76,106c-.9,2.8-3.49,9.1-3.5,9.31-1.84,5.22.63.35-2.17,3.09-3.37,3.28,7.59,12.16,9.5,10.29s1.91-5.65,1.68-8c6.19-16.2,10.45-28.59,13.38-38,7.29-21.11,16.43-47.73,17.81-52.38,1.44-4.87,4.84-20.48,4.88-31.69C398.16,185,397.84,182.05,397.84,182.05Z"/><path class="cls-12" d="M352.21,167.44c6.13,4.67,10.62,5.81,16.08,5.54,6.83-.33,22.23,0,23.11-7.6-3.51-11.42-2.62-25.31-2.76-38.09l-17,4.8c-3.65,1-11.75,1.62-12.89,5.34-.64,2.09.11,5.49-.06,7.75a57,57,0,0,1-1.13,7.69C357.17,154.61,354.11,167.44,352.21,167.44Z"/><path class="cls-20" d="M375.17,145.17a19.94,19.94,0,0,0,8.88-1.87c2.69-1.44,4.88-4.14,5-7.19l-27.53,3.95c-6,.87-1.76,3.16,1.65,4A46.32,46.32,0,0,0,375.17,145.17Z"/><path class="cls-12" d="M384.13,252.5s4.23,12.46,12,67.78c1.33,1.93,3.16,5.24,2.38,7.81s-14.65.07-13.29-4.44c4.29-14.19-11.6-42.88-15.32-54.58l-.6-14Z"/><path class="cls-7" d="M384.92,318.75c4.63,1.15,6.19.94,11,.34l8.27,6s9.48,6.39,8.71,8.95-26.22-4.06-26.22-4.06a4.2,4.2,0,0,1-2.92-5.59C384.55,321.62,385.37,321.11,384.92,318.75Z"/><path class="cls-7" d="M353,307.32c3.49,3.24,5,3.8,9.43,5.58l4.37,9.21s5.22,10.17,3.3,12-21-16.2-21-16.2a4.2,4.2,0,0,1,.15-6.31C351.31,309.65,352.27,309.6,353,307.32Z"/><path class="cls-12" d="M365,97.28a64,64,0,0,0,35.34-21.57c8.47-10.27,12.66-22.29,14.77-35.15a11.17,11.17,0,0,0,.14-4c-.13-.6-2.69-9.7.73-5.65a12.5,12.5,0,0,0,1.44,1.92c-.79-.64,0-8,.1-9.23a2.65,2.65,0,0,1,.36-1.39,1,1,0,0,1,1.3-.35,1.47,1.47,0,0,1,.44.58l1.71,3.26a2.86,2.86,0,0,1,2.84.67A5.86,5.86,0,0,1,425.66,29c2.63,8-3.16,12.29-5,19.52C419.88,51.42,418.45,54,418,57c-3.84,28.26-24.31,47.21-51.17,57-.74.27-.8,2.11-.49,1.4"/><path class="cls-4" d="M377.83,90.7c7.05-1.24,13.15-5.65,17.64-11S403,67.94,406,61.63c3.33-7.06,6.59-14.22,8.43-21.79L422,43.08a112.18,112.18,0,0,1-5.62,26A69.64,69.64,0,0,1,407.56,87c-5,7.07-11.84,12.75-18.55,18.35-5.45,4.54-11,9.13-17.48,12.1"/><path class="cls-12" d="M353.66,163.91s-7.61,7.9-8.49,24.58c-1.09,20.78,38.12,115.31,38.12,115.31s10,18.33,12,14.81-18.56-127.48-18.56-127.48l17.87-6.57s2.32-13.33-3.24-19.18C387.59,171.25,353.66,163.91,353.66,163.91Z"/><path class="cls-3" d="M353.66,163.91l1.65-5.64s25.28,4.32,36.22,1.7c1.24-1.39-.13,5.41-.13,5.41s1.06,3.22-13.58,2.3A119.23,119.23,0,0,1,353.66,163.91Z"/><path class="cls-3" d="M347.82,170.27c-1.88,7.6-2.83,15.46-3.91,23.27Q341,214.42,336.76,235a147.39,147.39,0,0,0,69.92-8c-8.95-30.16-8-61.64-18.23-93.18-10.74,1.84-21.57,3.33-32.26,5.54,4.8,3.48-.17,9.33-2,13.22A91.68,91.68,0,0,0,347.82,170.27Z"/><path class="cls-4" d="M360.66,142.47l35.43-4.89s-.23-13.3-.21-14.24a47.13,47.13,0,0,1,1.3-9.88c.58-2.58-.45-5.27-2-7.43-1.91-2.72-4.51-4.86-6.47-7.55-1.39-1.92-3.55-6-5.24-7.72-2.22-2.23-8.76,1.83-11.78.57.49-.68,1-2.08-.21-1.45-3.48,1.82-.83,1.72-4.17-.34-1.14-.7-2.32.46-4.94,1.08-2.95.69-13.64,2.93-15.1,5.39-3.51,5.91.77,12.89,1.39,19.38.82,8.48,2.1,19.85,2.91,28.33Z"/><path class="cls-12" d="M362.24,78.13c.2,4.84-1.67,10.12,1.28,14.31,2.49,3.52,6.09,6.18,9.74,8.41.84.52,4,3,5,2.19,1.4-1-1.49-6.37-2.1-7.79a25.4,25.4,0,0,1-2-11.58l.15-10.57Z"/><path class="cls-20" d="M374.16,84.79l.17-11.69-12.09,5,.38,9.08A25.08,25.08,0,0,0,374.16,84.79Z"/><path class="cls-12" d="M384.26,74.29A16,16,0,0,1,380.91,81c-1.55,1.88-3.29,2.38-5.41,2.91-6.74,1.68-16-.21-18-9-1.22.64-2.62-.55-3-2s.11-2.57.22-3.94c.1-1.12.05-2.21.2-3.35a23.24,23.24,0,0,1,2.19-8.06A13.75,13.75,0,0,1,363,52a30.26,30.26,0,0,1,7.13-2.35c4.12-1,10.22-2.09,12.89,2.77,1.55,2.82.44,8,.84,11.28C384.27,67.14,385,70.72,384.26,74.29Z"/><path class="cls-12" d="M351.64,64.08A3.66,3.66,0,0,0,350,67.25a8.49,8.49,0,0,0,5.94,8.38c1.07.31,2.4.32,3.09-.55s.37-2.2-.07-3.24C358.07,69.82,354.71,62.59,351.64,64.08Z"/><path class="cls-3" d="M351.14,67.12a2.65,2.65,0,0,1,1.39.4A6.27,6.27,0,0,1,355,70a10.39,10.39,0,0,1,1.19,3.26,4.47,4.47,0,0,1,.16,1.43,7.73,7.73,0,0,1-.42-1.36,13.56,13.56,0,0,0-1.25-3.14,7,7,0,0,0-2.3-2.39C351.67,67.3,351.13,67.18,351.14,67.12Z"/><path class="cls-3" d="M355.16,74s-.24-.18-.51-.56a5.64,5.64,0,0,1-.82-1.62,3.13,3.13,0,0,1,0-1.84c.14-.46.36-.68.4-.65s-.08.28-.14.71a3.72,3.72,0,0,0,.14,1.67,10,10,0,0,0,.69,1.6C355.09,73.74,355.21,74,355.16,74Z"/><path class="cls-21" d="M361.78,63.4c-.12-.07,0-.41.53-.83a5.89,5.89,0,0,1,2.51-1.12,7.46,7.46,0,0,1,2.94,0c.73.16,1.1.39,1.05.5s-1.77,0-3.65.38S362.06,63.55,361.78,63.4Z"/><path class="cls-3" d="M367.9,75.32c.12,0,.36.26.83.64a6.28,6.28,0,0,0,2.17,1.14,8,8,0,0,0,2.64.25c.7,0,1.14-.14,1.2-.06s-.33.31-1.08.48a6.47,6.47,0,0,1-3.06-.11,4.7,4.7,0,0,1-2.34-1.45C367.86,75.71,367.81,75.34,367.9,75.32Z"/><path class="cls-3" d="M377.07,61.87c0-.12.33-.27.91-.35a6,6,0,0,1,2.18.14,4,4,0,0,1,1.77.89c.36.36.34.68.19.73s-.39-.09-.79-.24a17,17,0,0,0-1.66-.52C378.33,62.16,377.09,62.12,377.07,61.87Z"/><path class="cls-3" d="M375,65a13.74,13.74,0,0,0-.46,2.7,19.14,19.14,0,0,0,0,2.73l.06.68,0,.18a.78.78,0,0,0,0,.22,1.52,1.52,0,0,0,.16.42,1.64,1.64,0,0,0,.64.64,1.21,1.21,0,0,0,.44.15l.14,0a.8.8,0,0,1,.16.88,3.47,3.47,0,0,1-.71,1.08,2.7,2.7,0,0,0,1.13-.87,1.59,1.59,0,0,0,.24-.78,1.2,1.2,0,0,0-.33-.86,1.06,1.06,0,0,0-.46-.26.84.84,0,0,1-.19-.09.74.74,0,0,1-.26-.34.86.86,0,0,1-.07-.21.49.49,0,0,1,0-.12v-.15l0-.67-.19-2.67C375.22,66.84,375.15,65.94,375,65Z"/><path class="cls-3" d="M370.35,69.5a3.54,3.54,0,0,0-1.5-1.08,4.1,4.1,0,0,0-1.71-.17,6.22,6.22,0,0,0-1.72.44,6.16,6.16,0,0,0-1.56,1l-.06.06a.18.18,0,0,1-.23,0c-.23-.21-.46-.43-.68-.67a8.08,8.08,0,0,1,.91.3l-.29.05a4,4,0,0,1,1.5-1.5,4.73,4.73,0,0,1,2.06-.63,3.48,3.48,0,0,1,2.12.52A2.52,2.52,0,0,1,370.35,69.5Z"/><path class="cls-3" d="M363.93,69.16l-.38-.57.67.14a.28.28,0,0,1,.21.33.27.27,0,0,1-.32.21A.28.28,0,0,1,363.93,69.16Z"/><path class="cls-3" d="M377.07,69.58a2.93,2.93,0,0,1,1.1-1.26,3.19,3.19,0,0,1,1.46-.4,5.17,5.17,0,0,1,1.6.2,5.32,5.32,0,0,1,1.56.71l.06,0a.14.14,0,0,0,.2,0,7.89,7.89,0,0,0,.46-.75,6.72,6.72,0,0,0-.74.42H383a4.1,4.1,0,0,0-1.61-1.26,3.93,3.93,0,0,0-1.93-.33,2.75,2.75,0,0,0-1.76.79A2.44,2.44,0,0,0,377.07,69.58Z"/><path class="cls-3" d="M382.63,68.37l.22-.6-.56.22a.28.28,0,0,0,.21.51A.24.24,0,0,0,382.63,68.37Z"/><path class="cls-22" d="M374.58,42.57a17.46,17.46,0,0,1,6.07,4.32c2.28,2.54,3.21,5.87,3.83,9.16.31,1.64.53,3.29.83,4.94.24,1.32,1.18,3.38.64,4.63A2.18,2.18,0,0,1,384.07,67,2.17,2.17,0,0,0,383,63.46a21.54,21.54,0,0,0-5.21-.52,17.54,17.54,0,0,1-13.71-6.8,10.91,10.91,0,0,1-4.61,6.74A3.87,3.87,0,0,0,358,64.23a3.35,3.35,0,0,0,.32,2.49,14.24,14.24,0,0,1-2.12,13.6,16.74,16.74,0,0,0-1.27-11.8,4.42,4.42,0,0,0-2.41-2.45c-1.16-.35-2.72.5-2.47,1.61-1.78-4.75-3.1-9.84-2.09-14.75C350.24,41.76,364.51,38.15,374.58,42.57Z"/><path class="cls-20" d="M382.85,130a57.12,57.12,0,0,0,10.65-3.8,6.61,6.61,0,0,1-3.29,4.55,17.63,17.63,0,0,1-5.07,1.5c-19.65,4.42-28.75,6.27-26.59-20.24.36-4.38,7.74,18.76,9.71,19.42C372.69,132.94,378.35,131.16,382.85,130Z"/><path class="cls-6" d="M251.46,0C242.31.07,235,7.09,235,15.67a14.73,14.73,0,0,0,1.62,6.6l-5,7,9.17-1.87a17.15,17.15,0,0,0,10.86,3.71C260.84,31,268.2,24,268.13,15.42S260.6-.07,251.46,0Z"/><path class="cls-9" d="M260.06,14.05a4.66,4.66,0,0,0-8.57-2.16,4.66,4.66,0,0,0-8.16,3.39c.24,3.33,5.3,6,7.77,8a1.38,1.38,0,0,0,1.83-.12C255.3,20.72,260.34,17.9,260.06,14.05Z"/><path class="cls-7" d="M331.18,5.7l21.43.21c2.58,0,4.67,1.8,4.65,3.93l-.15,15.7c0,2.14-2.15,3.87-4.72,3.85l-2.86,0a8.3,8.3,0,0,0,1.89,4.55,17.38,17.38,0,0,1-5.72-1.59,6.2,6.2,0,0,1-2.82-3L331,29.18c-2.58,0-4.67-1.79-4.65-3.93l.15-15.7C326.47,7.41,328.6,5.68,331.18,5.7Z"/><path class="cls-9" d="M347.19,17.59A2.65,2.65,0,1,0,349.87,15,2.66,2.66,0,0,0,347.19,17.59Z"/><path class="cls-9" d="M339.06,17.52a2.65,2.65,0,1,0,2.67-2.63A2.64,2.64,0,0,0,339.06,17.52Z"/><path class="cls-9" d="M330.92,17.44a2.65,2.65,0,1,0,2.67-2.63A2.64,2.64,0,0,0,330.92,17.44Z"/><polygon class="cls-23" points="162.64 44.11 164.46 40.79 167.77 38.97 164.46 37.16 162.64 33.84 160.83 37.16 157.51 38.97 160.83 40.79 162.64 44.11"/><polygon class="cls-24" points="162.58 19.81 163.81 17.56 166.06 16.33 163.81 15.11 162.58 12.86 161.36 15.11 159.11 16.33 161.36 17.56 162.58 19.81"/><polygon class="cls-25" points="142.16 32.38 144.83 27.5 149.71 24.83 144.83 22.16 142.16 17.28 139.49 22.16 134.6 24.83 139.49 27.5 142.16 32.38"/><polygon class="cls-26" points="488.48 50.69 486.66 47.38 483.34 45.56 486.66 43.74 488.48 40.43 490.29 43.74 493.61 45.56 490.29 47.38 488.48 50.69"/><polygon class="cls-27" points="488.53 26.4 487.31 24.15 485.06 22.92 487.31 21.69 488.53 19.45 489.76 21.69 492.01 22.92 489.76 24.15 488.53 26.4"/><polygon class="cls-28" points="508.96 38.97 506.29 34.08 501.41 31.41 506.29 28.75 508.96 23.86 511.63 28.75 516.51 31.41 511.63 34.08 508.96 38.97"/><path class="cls-7" d="M559.12,107.93c-4,10.85-10.12,14.41-9.39,25.93.86,13.47-4,27.5-3.11,41,.26,4.09,1.75,8.53,1.26,12.62-.56,4.62-6.76,5-10.73,5.92a65.09,65.09,0,0,1-37.79-2.43c-1-.39.16-16.48.19-18.07q.24-12,.62-23.92c.44-13.32-.05-28.39.94-37.32.74-6.7,8.89-11.67,10.07-12,6.44-1.6,11.15-3.17,17.78-3.55C545,95.2,559,108.19,559.12,107.93Z"/><path class="cls-7" d="M505.74,104.61s-8.34,7.87-9.26,9.26-13.89,52.32-13.89,52.32l23.15,13.89Z"/><path class="cls-29" d="M532.74,53.61a4.27,4.27,0,0,1,6.39,1.62,41.94,41.94,0,0,1,5.28,7.91c.93,1.66,1.9,3.44,1.8,5.34A10.18,10.18,0,0,1,545.12,72c-.57,1.29-1.15,2.57-1.72,3.85-.85,1.89-1.94,4-3.94,4.53,1.3.16,1.74,2,1,3.14a6,6,0,0,1-3.32,2,20.24,20.24,0,0,0-8.29,4.59,15,15,0,0,1-9.57,3.53,12.56,12.56,0,0,1-8.47-3.51c-2.82-2.62-2.41-6.39-2.37-10l.18-13.49a13.49,13.49,0,0,1,.71-5.07c1.11-2.54,3.48-2.85,5.53-2.91l20.3-.6"/><path class="cls-16" d="M526.26,84.79l7.53,15.43L530.34,103a8,8,0,0,1-12.57-3.78l-4.38-13.56Z"/><path class="cls-17" d="M518.2,98.69l-5.52-12.87,13.42-1,3.82,10.28A22.39,22.39,0,0,1,518.2,98.69Z"/><path class="cls-16" d="M504.56,82.05a16,16,0,0,0,2.58,7c1.33,2,3,2.73,5.05,3.49,5.81,2.17,16.66,1.32,19.73-5.24a10.83,10.83,0,0,0,.77-3c1.29-7.87,3.13-16.88-4.51-22a30.33,30.33,0,0,0-6.81-3.13c-4-1.42-9.9-3.22-13.1,1.3-1.86,2.62-1.34,7.85-2.1,11.08C505.36,75,504.22,78.43,504.56,82.05Z"/><path class="cls-3" d="M526.94,73.34c.12,0,.07-.37-.29-.86a5.54,5.54,0,0,0-2-1.56,6.77,6.77,0,0,0-2.65-.67c-.7,0-1.09.11-1.06.22s1.6.35,3.21,1.14S526.66,73.42,526.94,73.34Z"/><path class="cls-3" d="M513.75,68.36c0-.11-.26-.3-.77-.46a5.46,5.46,0,0,0-2-.2,3.81,3.81,0,0,0-1.76.54c-.37.27-.41.57-.28.64s.37,0,.76-.09a13.39,13.39,0,0,1,1.61-.23C512.55,68.44,513.7,68.59,513.75,68.36Z"/><path class="cls-3" d="M515.67,73c-.32.79-.58,1.59-.84,2.38l-.75,2.38-.19.59-.09.3a1,1,0,0,1-.07.15.61.61,0,0,1-.3.21l-.22,0a.9.9,0,0,0-.47.13,1.09,1.09,0,0,0-.49.7,1.36,1.36,0,0,0,0,.75,2.55,2.55,0,0,0,.83,1,3.45,3.45,0,0,1-.41-1.13.74.74,0,0,1,.35-.76.33.33,0,0,1,.14,0,1.94,1.94,0,0,0,.41,0,1.46,1.46,0,0,0,.76-.43,1.34,1.34,0,0,0,.23-.4l.11-.3.2-.61a17.54,17.54,0,0,0,.59-2.48A12.62,12.62,0,0,0,515.67,73Z"/><path class="cls-3" d="M510.71,82.58,523,84.13s.27,5-4.78,5C511.24,89.24,510.71,82.58,510.71,82.58Z"/><path class="cls-6" d="M517.26,86.21a6.23,6.23,0,0,1,5,.62l0,0a4.36,4.36,0,0,1-4.17,2.31,7.71,7.71,0,0,1-3.86-.87A5.76,5.76,0,0,1,517.26,86.21Z"/><path class="cls-3" d="M519.29,76.1a3.24,3.24,0,0,1,1.55-.73,3.74,3.74,0,0,1,1.59.14,6,6,0,0,1,1.49.7,5.47,5.47,0,0,1,1.27,1.14l0,.06a.17.17,0,0,0,.21,0c.25-.16.14-.44-.14-.38l.25.09a3.7,3.7,0,0,0-1.1-1.63,4.24,4.24,0,0,0-1.77-.92,3.21,3.21,0,0,0-2,.1A2.36,2.36,0,0,0,519.29,76.1Z"/><path class="cls-3" d="M512.89,75.6a3.32,3.32,0,0,0-1.06-1.35,3.76,3.76,0,0,0-1.48-.6,5.86,5.86,0,0,0-3.29.38l-.07,0a.15.15,0,0,1-.2-.06c-.15-.25.07-.45.3-.27l-.27,0a3.69,3.69,0,0,1,1.73-1,4.36,4.36,0,0,1,2,0,3.32,3.32,0,0,1,1.76,1A2.38,2.38,0,0,1,512.89,75.6Z"/><path class="cls-16" d="M537.29,71.37A3.39,3.39,0,0,1,539,74.24a7.9,7.9,0,0,1-5.19,8,2.7,2.7,0,0,1-2.89-.39c-.69-.8-.43-2,0-3C531.56,77,534.39,70.11,537.29,71.37Z"/><path class="cls-3" d="M537.88,74.17a2.55,2.55,0,0,0-1.28.42A6,6,0,0,0,534.39,77a9.89,9.89,0,0,0-1,3.08,4.09,4.09,0,0,0-.09,1.33,6.91,6.91,0,0,0,.34-1.28,11.61,11.61,0,0,1,1-3,6.37,6.37,0,0,1,2-2.31C537.4,74.36,537.89,74.23,537.88,74.17Z"/><path class="cls-3" d="M534.42,80.75s.21-.18.45-.54a5.31,5.31,0,0,0,.7-1.54,3,3,0,0,0,0-1.71c-.15-.43-.36-.62-.39-.59s.08.26.16.65a3.53,3.53,0,0,1-.07,1.56,8.56,8.56,0,0,1-.58,1.51C534.47,80.47,534.38,80.72,534.42,80.75Z"/><path class="cls-30" d="M539.19,56.7c.65,2.51,0,5-1,7.37-.69,1.74-1.25,4.28-2.17,5.87-3,5.23-7.94-2.63-7.56-2.85-3,1.78-5.56-.21-8.52-.87a26.29,26.29,0,0,0-8,0c-1.11.11-4.39,1.11-5.38.5-1.18-.72-.17-1.57,1.26-1.93-3.14.66-8.32-.63-7.76-4.84.24-1.79,2.25-3.25,3.93-2.58a4.89,4.89,0,0,1,1.77-8.93c2.87-.52,5.57,1.55,8.47,1.87,3.25.37,6.3-1.47,9.5-2.15a14,14,0,0,1,12.54,3.93A10.05,10.05,0,0,1,539.19,56.7Z"/><path class="cls-31" d="M515.46,52.05h.47"/><path class="cls-6" d="M537.09,343c-4.67,4.16-16.33,7.9-18.79,2.53-1-2.16.38-4.71,1.7-6.69,3.92-5.9,7.75-10.08,6.35-17.74l11.34,1.5c-.59-.07.24,6.36.39,7.06.83,3.81,2.45,7.31.7,11.22A6.77,6.77,0,0,1,537.09,343Z"/><path class="cls-6" d="M499.64,321.08c-5.16,1.15-6.9.87-12.17.08l-9.33,6.4s-10.7,6.85-9.91,9.71,29.21-3.82,29.21-3.82a4.66,4.66,0,0,0,3.38-6.13C500,324.27,499.08,323.69,499.64,321.08Z"/><path class="cls-3" d="M546.33,190.53s.62,21.19-.18,26.85c-1.84,13-7.53,111.47-7.23,110.32,0,0-7.9,2.05-12.73-1S516,223.87,516,223.87l-5.24-.52-10.26,38.26s3.07,60.47,1.1,60.77-15.53,2.68-16.4-.71-6-64.68-6-64.68l21.45-68.32Z"/><path class="cls-17" d="M494,209.79c4.35,8.3,16.69,13.56,16.69,13.56l-10.26,38.26s3.07,60.47,1.1,60.77-15.53,2.68-16.4-.71-6-64.68-6-64.68Z"/><path class="cls-17" d="M538.49,128.53c-.88,4.52,2.36,30.09-1,31.82C526.73,165.8,517.51,173,515,175.49a3.36,3.36,0,0,0,3,5.68,47.8,47.8,0,0,0,21-10.63c6.64-6.25,10.27-15.28,10.95-24.37a48.75,48.75,0,0,0-2.69-20.64C544.28,117.63,539.74,122.06,538.49,128.53Z"/><path class="cls-18" d="M514.74,74.13a6.15,6.15,0,1,1-4.83-7.24A6.15,6.15,0,0,1,514.74,74.13Z"/><path class="cls-18" d="M529.49,78.09a6.16,6.16,0,1,1-4.84-7.24A6.15,6.15,0,0,1,529.49,78.09Z"/><path class="cls-18" d="M513.52,75.49a5.18,5.18,0,0,1,4.79.59"/><path class="cls-3" d="M137.61,49.86c7.94,4.64,10.26,12.58,12.24,21,1.06,4.48,1.64,7.33.65,11.76-.21,1-4.33,12.19-4.91,11.5l-2.21-2.64-1.07,1.88A47.76,47.76,0,0,1,115.47,91c.27,1,.55,2.07.82,3.11A23.24,23.24,0,0,1,101,78.27C95.57,58.2,119.48,39.25,137.61,49.86Z"/><path class="cls-12" d="M123,84.7c-1.81,4.51-2.31,9.86-7,11.51-7,2.78-15.92,5.43-10.07,7.46.71.25,3.06,6.72,3.7,6.31.38-.24,18.9,13.25,19.1,12.85.87-1.66,12.45-9.08,13-10.88.34-1.21,6.39-6.18,6.13-7.41-.34-1.69-16.69-7.67-16.87-9s1.52-3.17,2.07-4.34l2.85-6.09Z"/><path class="cls-20" d="M131,95.48l4.87-10.41L123,84.7,119.63,93A24.71,24.71,0,0,0,131,95.48Z"/><path class="cls-12" d="M143.83,81.41a15.77,15.77,0,0,1-2.61,6.85c-1.33,2-3,2.65-5,3.38-6.42,2.32-15.63,1.39-18.47-7-1.13.75-2.62-.28-3.11-1.7s-.15-2.52-.17-3.87c0-1.11-.17-2.17-.14-3.3a22.69,22.69,0,0,1,1.34-8.09,13.49,13.49,0,0,1,5.15-6,29.83,29.83,0,0,1,6.74-3c3.93-1.35,9.78-3.06,12.88,1.43,1.8,2.61,1.23,7.75,1.94,10.94C143.13,74.42,144.21,77.84,143.83,81.41Z"/><path class="cls-12" d="M110.91,74.67a3.56,3.56,0,0,0-1.31,3.26,8.32,8.32,0,0,0,6.64,7.61,2.85,2.85,0,0,0,3-.85c.6-.94.14-2.18-.4-3.16C117.77,79.64,113.76,72.91,110.91,74.67Z"/><path class="cls-3" d="M110.73,77.69a2.6,2.6,0,0,1,1.4.25,6.24,6.24,0,0,1,2.67,2.13,10.54,10.54,0,0,1,1.49,3.08,4.39,4.39,0,0,1,.3,1.38,7.44,7.44,0,0,1-.55-1.3,12.73,12.73,0,0,0-1.54-2.94A6.85,6.85,0,0,0,112,78.18C111.26,77.82,110.72,77.75,110.73,77.69Z"/><path class="cls-3" d="M115.35,84.05s-.26-.15-.56-.49a6,6,0,0,1-1-1.5,3.17,3.17,0,0,1-.22-1.81c.1-.46.29-.7.33-.67s0,.28-.07.71a3.77,3.77,0,0,0,.31,1.62A9.34,9.34,0,0,0,115,83.4C115.25,83.77,115.39,84,115.35,84.05Z"/><path class="cls-3" d="M122.42,74.77c-.13-.06,0-.41.43-.87a6,6,0,0,1,2.34-1.34,7.35,7.35,0,0,1,2.87-.32c.74.08,1.12.27,1.08.38s-1.73.15-3.53.74S122.7,74.89,122.42,74.77Z"/><path class="cls-3" d="M127.94,84.05c.1,0,.37.21.86.54a6,6,0,0,0,2.24.89,7.54,7.54,0,0,0,2.61,0c.68-.11,1.11-.25,1.16-.17s-.28.33-1,.57a6.33,6.33,0,0,1-3,.19,4.58,4.58,0,0,1-2.44-1.18C127.93,84.43,127.84,84.08,127.94,84.05Z"/><path class="cls-3" d="M135.93,71.58c0-.12.29-.3.85-.44a6,6,0,0,1,2.15-.07,3.93,3.93,0,0,1,1.82.69c.38.31.4.63.26.69s-.4,0-.8-.15a15.45,15.45,0,0,0-1.68-.35C137.19,71.74,136,71.82,135.93,71.58Z"/><path class="cls-3" d="M133.87,73.27a12.87,12.87,0,0,0-.19,2.69,20.08,20.08,0,0,0,.25,2.68l.13.66,0,.17a1.72,1.72,0,0,0,.07.21,1.44,1.44,0,0,0,.2.39,1.61,1.61,0,0,0,.69.57,1.17,1.17,0,0,0,.44.1.32.32,0,0,1,.14,0,.77.77,0,0,1,.25.84,3.42,3.42,0,0,1-.59,1.13,2.63,2.63,0,0,0,1-1,1.56,1.56,0,0,0,.15-.78,1.17,1.17,0,0,0-.4-.81,1.14,1.14,0,0,0-.48-.21l-.19-.07a.76.76,0,0,1-.29-.3,1,1,0,0,1-.09-.21l0-.11,0-.15-.11-.65-.45-2.59C134.24,75,134.09,74.15,133.87,73.27Z"/><path class="cls-3" d="M127.76,79c-.46.1-1-.42-1.13-1.19s.32-1.48.78-1.56.81.48.91,1.23S128.23,78.89,127.76,79Z"/><path class="cls-3" d="M127.37,76.91a1.81,1.81,0,0,1-1.17-.83A1.09,1.09,0,0,0,127,77.4a1.71,1.71,0,0,1-1.65-.2,1.77,1.77,0,0,0,2.06.54"/><path class="cls-3" d="M137.88,78.3c.48,0,1-.56,1-1.33s-.52-1.42-1-1.44-.73.58-.73,1.34S137.41,78.26,137.88,78.3Z"/><path class="cls-3" d="M138,76.19a1.84,1.84,0,0,0,1-1,1.08,1.08,0,0,1-.62,1.41,1.71,1.71,0,0,0,1.6-.41,1.78,1.78,0,0,1-2,.8"/><path class="cls-18" d="M135.65,76.42A6.15,6.15,0,1,0,141.47,70,6.16,6.16,0,0,0,135.65,76.42Z"/><path class="cls-18" d="M120.49,78.22a6.15,6.15,0,1,0,5.82-6.47A6.15,6.15,0,0,0,120.49,78.22Z"/><path class="cls-18" d="M136.67,77.94a5.16,5.16,0,0,0-4.83-.1"/><path class="cls-18" d="M120.78,77.47a33.71,33.71,0,0,0-8.86-3.16c-.55-.11-1.31-.07-1.42.47"/><path class="cls-3" d="M134.86,69.9c-3.8-.25-7.43-1.84-10.93-3.41,1,.47-7.45,8.28-8.76,8.69-4.45,1.37-5.22-4.69-5.06-8,.19-3.85.78-7.54,4-9.8a23,23,0,0,1,25.34-.58C142,58.36,146.71,62,145,65.5c-1.49,3.07-6.05,4.45-9.17,4.44C135.53,69.94,135.2,69.92,134.86,69.9Z"/><path class="cls-4" d="M163.68,138.7a6.2,6.2,0,0,1-3.53,4.5,8.55,8.55,0,0,1-7.11-.29c-9.66-4.59-16.87-22.94-13.61-32.9.8-2.44,3.34-6,6.09-6.39,5-.79,3.49,2.36,4.36,5.23,2.64,8.63,8.49,17.14,12.6,25.19a10.12,10.12,0,0,1,1.23,3.28A5.3,5.3,0,0,1,163.68,138.7Z"/><path class="cls-6" d="M163.68,138.7a6.2,6.2,0,0,1-3.53,4.5,8.55,8.55,0,0,1-7.11-.29c-9.66-4.59-16.87-22.94-13.61-32.9.8-2.44,3.34-6,6.09-6.39,5-.79,3.49,2.36,4.36,5.23,2.64,8.63,8.49,17.14,12.6,25.19a10.12,10.12,0,0,1,1.23,3.28A5.3,5.3,0,0,1,163.68,138.7Z"/><path class="cls-20" d="M163.68,138.7a6.2,6.2,0,0,1-3.53,4.5,8.55,8.55,0,0,1-7.11-.29c-9.66-4.59-16.87-22.94-13.61-32.9.8-2.44,3.34-6,6.09-6.39,5-.79,3.49,2.36,4.36,5.23,2.64,8.63,8.49,17.14,12.6,25.19a10.12,10.12,0,0,1,1.23,3.28A5.3,5.3,0,0,1,163.68,138.7Z"/><path class="cls-6" d="M124.15,331.77c-1,2.75-2.13,4.87-3.13,5.71a5.76,5.76,0,0,1-6.41.85,6.27,6.27,0,0,1-2.71-5.49c0-3.36,1.72-5.25,3.1-8,1.91-3.87,2.91-8.53,4.3-12.62.55-1.62,1.26-3.42,2.84-4.08C130,304.8,127.7,322.13,124.15,331.77Z"/><path class="cls-20" d="M124.15,331.77c-1,2.75-2.13,4.87-3.13,5.71a5.76,5.76,0,0,1-6.41.85,6.27,6.27,0,0,1-2.71-5.49c0-3.36,1.72-5.25,3.1-8,1.91-3.87,2.91-8.53,4.3-12.62.55-1.62,1.26-3.42,2.84-4.08C130,304.8,127.7,322.13,124.15,331.77Z"/><path class="cls-12" d="M108.25,167.46S99,180.58,101.12,231c1.66,39.34,19.26,80,19.26,80s5.93,1.61,8.18-1.7-4.75-79.48-3.73-85.75,4.54-43.55,4.54-43.55L128,163.23Z"/><path class="cls-20" d="M108.25,167.46S99,180.58,101.12,231c1.66,39.34,19.26,80,19.26,80s5.93,1.61,8.18-1.7-4.75-79.48-3.73-85.75,4.54-43.55,4.54-43.55L128,163.23Z"/><path class="cls-12" d="M147.07,166.81c-11.61,5.75-27,1.55-39.1,0,2.91.36,6.51-32.92,7-36.3.16-1.06,25,2.53,28,2.93a155.7,155.7,0,0,0,0,19.68C143.1,154.7,144.92,167.87,147.07,166.81Z"/><path class="cls-12" d="M141.49,256.54s-1.22,12.51-15.57,63.62c.36,2.2.6,5.82-1,7.73s-11.78-5.82-9-9.18c8.71-10.6,5.61-42.31,7-53.95l5.7-11.93Z"/><path class="cls-6" d="M117.53,314.35c3.29,2.85,4.62,3.29,8.67,4.69l4.42,8.49s5.24,9.35,3.67,11.26-19.53-14-19.53-14a4.22,4.22,0,0,1-.26-6C116.17,316.69,117,316.58,117.53,314.35Z"/><path class="cls-6" d="M107.41,110.7c-1.53,4.7-7,26-8,32.88-4.71-.42-5.41.54-10.12.12a6.39,6.39,0,0,1-3.28-.91c-1.63-1.19-1.75-3.55-1.62-5.57a69.15,69.15,0,0,1,5.37-22.61c1.36-3.19,3.12-8.31,5.72-10.7s3.06-1.43,6.32-1.8"/><path class="cls-12" d="M144,166.84a112.06,112.06,0,0,1,4.77,55.59c-.34,2.15-.75,6.18-1.13,8.27-.47,2.57-.69,5.23-1.07,7.82q-1.17,7.78-2.64,15.5c-1.8,9.51-3.89,19-6.19,28.33C135.42,292,130,306,127,315.37c0,0-5.39.43-7.41-2.93s7.15-83.71,6.35-90c-1.58-12.34-2.08-24.92-3-37.34l-19-5.76q2.35-8.37,4.7-16.75a70.58,70.58,0,0,0,34.14.91C143.24,164.6,143.65,165.72,144,166.84Z"/><path class="cls-20" d="M117.61,151.48a9.51,9.51,0,0,1-4.38-2.39,4,4,0,0,1-.76-4.64c0,.05,14.35,3.18,15.78,3.32,5.2.51,10.35-.21,15.48,0-1.62,2.89-7.45,4-10.46,4.56A33.21,33.21,0,0,1,117.61,151.48Z"/><path class="cls-6" d="M98,102.44c.55-.7,13.76-4.82,18-6.23l11.24,11.72L130.9,95.5c1,.46,18.75,8.8,17.68,8.7-3.65,2.37-4.12,7.21-3.14,11.46,1.19,5.15,3.34,9.93,1.84,15.28-1.22,4.35-2.61,6.64-2.51,11.5.27,12,2.22,24,4,35.91l5.07,33.47c.91,6.05,1.69,12.76-1.76,17.81-4.45,6.51-12.36,5-19.13,5.55a105.48,105.48,0,0,1-23.55-1C102,233,95.09,229.49,88.08,226.6l12.75-59.93c2.36-11,6.65-23.46,6.87-34.78.17-8.32-4.61-19.08-8.53-26.25C98.58,104.54,97.17,103.5,98,102.44Z"/><path class="cls-20" d="M133.51,138.86c.73.21,1.63.65,1.55,1.41s-.87,1-1.54,1.12a20.21,20.21,0,0,1-18.29-6.08C118.76,132.3,129.52,137.69,133.51,138.86Z"/><path class="cls-32" d="M50,108.28l5.22-2.2s10.49,20.37,12.35,28.71,5.86,33.64,5.86,33.64L59.88,177.7,49.69,125.83Z"/><path class="cls-16" d="M44.45,112.54C56.79,106.31,65.22,93.93,71,81.67c5.5-11.73,6.56-24.08,5.44-36.71a10.66,10.66,0,0,0-.84-3.79c-.26-.55-4.88-8.5-.67-5.51a12.66,12.66,0,0,0,1.82,1.46c-.9-.41-1.92-7.55-2.13-8.73a2.53,2.53,0,0,1,0-1.39,1,1,0,0,1,1.14-.64,1.33,1.33,0,0,1,.56.44c.8.88,1.6,1.77,2.39,2.66a2.77,2.77,0,0,1,2.85-.06,5.76,5.76,0,0,1,2,2.08c4.39,6.86,0,12.35,0,19.62a76.21,76.21,0,0,0,1,8.76c3.2,27.58-11.21,52-34.16,67.68-.64.44-1.92.53-1.8-.22"/><path class="cls-16" d="M76.41,45c0,.47.07.95.11,1.42a75.67,75.67,0,0,0,7.13,2.94c.59-6.41,4-11.55-.07-17.84a5.76,5.76,0,0,0-2-2.08,2.77,2.77,0,0,0-2.85.06c-.79-.89-1.59-1.78-2.39-2.66a1.33,1.33,0,0,0-.56-.44,1,1,0,0,0-1.14.64,2.53,2.53,0,0,0,0,1.39c.21,1.18,1.23,8.32,2.13,8.73a12.66,12.66,0,0,1-1.82-1.46c-4.21-3,.41,5,.67,5.51A10.66,10.66,0,0,1,76.41,45Z"/><path class="cls-33" d="M86.43,51.13c-2.35-.8-7.53-1.63-9.78-2.65C77.29,59.88,76,71,71,81.67c-5.75,12.26-14.18,24.64-26.52,30.87l4.12,14.78c-.12.75,3.57,3.27,4.21,2.84,23-15.74,36.11-38.68,34.26-66.37C86.74,59.16,86.44,54,86.43,51.13Z"/><path class="cls-16" d="M72.3,203.78s-15.53,61-34.94,111.81c.23,2.27.23,6-1.63,7.78s-12.53-6.82-9.25-10c10.33-10.09,9.88-51.28,12.21-63l8-57.25Z"/><path class="cls-17" d="M70.59,210.61s-13.82,54.2-33.23,105c.23,2.27.23,6-1.63,7.78s-12.53-6.82-9.25-10c10.33-10.09,9.88-51.28,12.21-63l5-40.16Z"/><path class="cls-3" d="M28.56,309c3.4,3.16,4.84,3.71,9.18,5.44l4.25,9s5.09,9.91,3.22,11.73-20.44-15.78-20.44-15.78a4.09,4.09,0,0,1,.14-6.14C26.9,311.31,27.83,311.26,28.56,309Z"/><path class="cls-16" d="M56.33,258.3s4.12,12.13,11.64,66c1.29,1.88,3.07,5.11,2.32,7.6s-13,.27-12.94-4.31c.19-14.22-13.29-46.41-16.9-57.8l1.4-8.93Z"/><path class="cls-3" d="M57.1,322.79c4.5,1.12,6,.9,10.66.32l8,5.8s9.23,6.22,8.48,8.71-25.52-3.94-25.52-3.94a4.09,4.09,0,0,1-2.84-5.45C56.74,325.57,57.53,325.08,57.1,322.79Z"/><path class="cls-16" d="M26.67,172.07s-7.41,7.69-8.26,23.92C17.34,216.22,55,306.79,55,306.79s10,19.65,12,16.24S49.17,198.56,49.17,198.56l20.5-8.26s-.85-11.11-6.26-16.81C59.7,179.21,26.67,172.07,26.67,172.07Z"/><path class="cls-7" d="M26.63,166.43a26.24,26.24,0,0,0,2.77-7.91,20.51,20.51,0,0,0-2.27-12c-2.2-4.45-5.5-8-7.1-12.73-2.19-6.48-3.7-9.55-3.13-16.18.26-3,3.07-5.23,5.79-7.41,4.31-3.48,9-1.12,13.93-2.45a10.12,10.12,0,0,1,3.29-.26,18.37,18.37,0,0,0,4.06-.29,9.33,9.33,0,0,1,9.83,4.9c1.67,3.34,4.25,5.72,5.48,8.35.63,1.35,1.87,3.09,2.53,4.33a20.35,20.35,0,0,1,2.68,8.34,11.92,11.92,0,0,1-3.18,9,9.32,9.32,0,0,0-2.39,7.45,29.89,29.89,0,0,0,4.15,12.08,9.25,9.25,0,0,1,.72,1.4c1.56,3.88,8.44,21.89,8.44,38.71,0,19-44.51,76.87-45.12,71.77-1.57-13.25-5.25-26.07-7.73-39.15A127.72,127.72,0,0,1,21,178.51C22.14,174.22,24.62,170.4,26.63,166.43Z"/><path class="cls-12" d="M22,85a18.21,18.21,0,0,1,6.75-18.92A21.84,21.84,0,0,1,50.1,63.71c2.56,1.15,5.14,3.79,3.8,6.12-1,1.79-3.61,2-5.66,2.74-4,1.38-6.37,5-8.5,8.38-1.52,2.42-3.07,4.92-3.49,7.69-.5,3.38.87,6.46,3.13,9C32.56,101.89,23.38,90,22,85Z"/><path class="cls-16" d="M39.66,99.27c-.47,1.91-.94,3.83-1.42,5.74-.89,3.62-1.82,6.55,3.4,7.32,5.61.82,6.56-3.55,7.6-7.74.29-1.15,1.08-6.48,2.66-6.69Z"/><path class="cls-17" d="M48.11,108.51l3-10.47L39.49,99.3l-1.88,8.27A21.52,21.52,0,0,0,48.11,108.51Z"/><path class="cls-16" d="M59,95.65A15.07,15.07,0,0,1,56,102c-1.4,1.82-3,2.33-5,2.89-6.28,1.76-15,.24-17.14-7.93-1.13.63-2.48-.45-2.85-1.84s0-2.41.1-3.7c.06-1.06,0-2.08.09-3.16a21.9,21.9,0,0,1,1.84-7.63,13,13,0,0,1,5.32-5.38A28.78,28.78,0,0,1,45,72.84c3.85-1,9.55-2.25,12.2,2.25,1.54,2.61.63,7.48,1.1,10.57C58.8,88.93,59.6,92.27,59,95.65Z"/><path class="cls-16" d="M28,87a3.44,3.44,0,0,0-1.48,3,8,8,0,0,0,5.82,7.71,2.75,2.75,0,0,0,2.89-.6c.64-.86.28-2.07-.16-3C34.24,92.17,30.88,85.47,28,87Z"/><path class="cls-3" d="M27.66,89.82a2.52,2.52,0,0,1,1.31.34,6,6,0,0,1,2.41,2.22,10,10,0,0,1,1.21,3,3.91,3.91,0,0,1,.19,1.34,6.51,6.51,0,0,1-.43-1.27,12.48,12.48,0,0,0-1.27-2.91,6.45,6.45,0,0,0-2.22-2.19C28.15,90,27.64,89.88,27.66,89.82Z"/><path class="cls-3" d="M31.63,96.21s-.23-.16-.49-.51a5.26,5.26,0,0,1-.83-1.5,3.08,3.08,0,0,1-.09-1.73c.13-.44.33-.65.36-.63s-.06.27-.11.68a3.69,3.69,0,0,0,.18,1.57,9,9,0,0,0,.7,1.48C31.55,95.94,31.67,96.18,31.63,96.21Z"/><path class="cls-12" d="M37.56,86c-.12-.06,0-.39.47-.79a5.43,5.43,0,0,1,2.33-1.12A7,7,0,0,1,43.12,84c.69.13,1.05.33,1,.44s-1.66,0-3.42.46S37.82,86.17,37.56,86Z"/><path class="cls-34" d="M51.89,84.17c0-.11.3-.26.84-.35a5.63,5.63,0,0,1,2.06.07,3.8,3.8,0,0,1,1.69.79c.34.32.33.63.19.68s-.37-.07-.75-.2a14.42,14.42,0,0,0-1.58-.45C53.08,84.41,51.91,84.41,51.89,84.17Z"/><path class="cls-3" d="M50,87.2a12.25,12.25,0,0,0-.36,2.55,18.35,18.35,0,0,0,.06,2.57l.07.64,0,.17a1.46,1.46,0,0,0,.05.2,1.53,1.53,0,0,0,.78,1,1.76,1.76,0,0,0,.41.13.29.29,0,0,1,.14,0,.75.75,0,0,1,.18.82,3.53,3.53,0,0,1-.64,1,2.49,2.49,0,0,0,1-.86,1.38,1.38,0,0,0,.21-.73,1.11,1.11,0,0,0-.34-.8,1,1,0,0,0-.43-.23L51,93.63a.72.72,0,0,1-.26-.31.86.86,0,0,1-.07-.21s0-.06,0-.1v-.15l-.06-.62-.25-2.51C50.28,88.89,50.19,88.05,50,87.2Z"/><path class="cls-3" d="M45.78,91.53a3.32,3.32,0,0,0-1.44-1,3.8,3.8,0,0,0-1.61-.11,5.64,5.64,0,0,0-1.6.46,5.34,5.34,0,0,0-1.45.93l0,.06a.18.18,0,0,1-.22,0,7.51,7.51,0,0,1-.65-.62,8.52,8.52,0,0,1,.86.26l-.27.06a3.72,3.72,0,0,1,1.36-1.45,4.35,4.35,0,0,1,1.92-.65,3.23,3.23,0,0,1,2,.43A2.39,2.39,0,0,1,45.78,91.53Z"/><path class="cls-3" d="M39.74,91.39l-.38-.52L40,91a.25.25,0,0,1,.2.3.25.25,0,0,1-.3.21A.27.27,0,0,1,39.74,91.39Z"/><path class="cls-3" d="M52.1,91.42a2.84,2.84,0,0,1,1-1.21,3,3,0,0,1,1.36-.42,5.22,5.22,0,0,1,1.51.14,4.89,4.89,0,0,1,1.48.63l.07,0a.13.13,0,0,0,.18,0,5.6,5.6,0,0,0,.41-.72,7.74,7.74,0,0,0-.68.42h.25a3.78,3.78,0,0,0-1.55-1.14,3.68,3.68,0,0,0-1.82-.26,2.59,2.59,0,0,0-1.63.8A2.3,2.3,0,0,0,52.1,91.42Z"/><path class="cls-3" d="M57.29,90.13l.19-.57-.52.23a.26.26,0,0,0,.21.47A.22.22,0,0,0,57.29,90.13Z"/><path class="cls-3" d="M53.13,98.21l-9.06-1.37a3.46,3.46,0,0,0,2.39,4.56A5.32,5.32,0,0,0,53.13,98.21Z"/><path class="cls-6" d="M47.72,99.48A4.68,4.68,0,0,0,44,98.9h0a3.21,3.21,0,0,0,2.5,2.49,5.7,5.7,0,0,0,2.94.16A4.3,4.3,0,0,0,47.72,99.48Z"/><path class="cls-12" d="M46.06,80.85c7.59,1.75,17.29,2.29,14.36-5.74-3.54-9.73-14.49-14.2-23.39-8.8a19.3,19.3,0,0,0-7.64,9.1c-1.31,2.9-3.93,5-2.76,8.27.29.78,5.68,7.42,6.27,6.26l5.77-11.41A43.57,43.57,0,0,0,46.06,80.85Z"/><path class="cls-12" d="M43.58,65.57c2.63-.34,4.13-3.59,3.35-6.12s-3.14-4.28-5.62-5.22a15.86,15.86,0,0,0-6-1,13.65,13.65,0,0,0-8.9,3.39,10.63,10.63,0,0,0-3.5,8.71,8.7,8.7,0,0,0,5.6,7.31,7.42,7.42,0,0,0,8.52-2.94"/><path class="cls-35" d="M22.69,110.23,17.9,174.61l23.46,4.94s9.88-38.9,6.17-45.07-14.2-25.93-14.2-25.93S27.48,105.73,22.69,110.23Z"/><path class="cls-17" d="M38.11,147.8c-.39-.73-.76-1.47-1.1-2.21a83.29,83.29,0,0,1-4.53-14.37c-.76-3-1.14-6.63-2.41-9.51-.87-2-3.85-3.19-3.42,0q.92,7,1.84,13.93c.32,2.37.63,4.74,1,7.11.2,1.54,0,3.22.27,4.71.57,2.86,3.18,5.95,5.35,7.78a17.2,17.2,0,0,0,8.46,3.7,3.75,3.75,0,0,0,1.53,0c3.28-1-2.3-4.63-3.3-5.79A30.56,30.56,0,0,1,38.11,147.8Z"/><path class="cls-6" d="M28.59,202l-11.17-.41a3.8,3.8,0,0,1-3.63-4.28l1.62-12.81A3.79,3.79,0,0,1,19,181.21l11.46-.42a3.81,3.81,0,0,1,3.9,4.33l-1.91,13.64A3.8,3.8,0,0,1,28.59,202Z"/><path class="cls-36" d="M29.94,185.72s26.85-70.84,23.61-74.55S48,109.55,48,109.55"/><path class="cls-7" d="M38.28,104.44c3.46-.16,8.3,1.47,10.16,1.91a7.27,7.27,0,0,1,3.38,1.43,3.45,3.45,0,0,1,.61,4.19c-1.15,1.94-4.19,2-6.24,2A17.4,17.4,0,0,1,38,111.89c-1.44-.76-3.46-1.55-3.56-4S36,104.55,38.28,104.44Z"/><path class="cls-17" d="M53,110.78c-.19,1.83-1.82,2.63-3.23,2.89a18.27,18.27,0,0,1-11.56-1.78c-1.18-.59-2.72-1.22-3.39-2.63,0,.14,0,.3,0,.46.1,2.47,2.22,3.26,3.74,4a18.4,18.4,0,0,0,11.56,1.78c1.44-.27,3.11-1.1,3.24-3A3.6,3.6,0,0,0,53,110.78Z"/><path class="cls-37" d="M115.94,96.21l11.24,11.72-11.12,3.7S108.41,98.84,115.94,96.21Z"/><path class="cls-37" d="M127.18,107.93,131,95.48s10.12,8.75,5.49,13.84Z"/><path class="cls-37" d="M60.41,211.09a1030.26,1030.26,0,0,0,231.3,20c43.82-1.17,87.5-5.13,131.16-9.09l95.5-8.67C500.46,186.1,498,149.4,512,120l-195.69,1.73c-46.06.41-92.13.82-138.19-.09-23.21-.45-46.41-1.24-69.59-2.53-10.1-.57-22.66-3.61-32.61-1.89-9.77,1.69-6.11,12.92-5.89,20.17A232.33,232.33,0,0,1,60.41,211.09Z"/><path class="cls-16" d="M69.14,165.9c-1.5,1.76-2.23,3.88-.42,5.69s5.62.51,7.57-.08L84,169.19c1.64-.5,3.64-1.47,3.53-3.2a3.46,3.46,0,0,0-1.81-2.43,12.71,12.71,0,0,0-16.55,2.34Z"/><path class="cls-38" d="M25,108.62l13.66,47.63,31.2,7.09s-.3,8.74-2.56,9.61-41.73-5-43.23-7.34c-1.09-1.72-7-25-10.15-37.4a12.29,12.29,0,0,1-.19-4.08,19.3,19.3,0,0,1,10.43-15.07Z"/><path class="cls-16" d="M496.49,194.39v-.09c0-6.64,6.86-14.89,13.92-12a9,9,0,0,1,4.53,3.71c1.58,2.63.6,3.24-1.65,5.11C509.75,194.09,496.58,205.72,496.49,194.39Z"/><path class="cls-7" d="M542.93,120.81,544.3,159l-36,22.44s4.26,7.78,7.5,7.76,48-19.13,48.77-22.76-5.24-58.69-5.24-58.69Z"/><path class="cls-39" d="M154.8,210.7a1114.88,1114.88,0,0,0,248.36,1.21c20-2.15,42.32-6.17,53.62-21.88A893.45,893.45,0,0,1,145,189c-6.63-1.2-34.33-4.15-31.78,7.59C115.46,206.71,146.79,209.76,154.8,210.7Z"/><path class="cls-12" d="M86.6,116.19a5.87,5.87,0,0,0-4.72,1.55c-2.12,2.17-.5,5.65.9,7.39a18.1,18.1,0,0,0,3.34,3.59,54.75,54.75,0,0,0,5.34,2.74c1,.48,2.08-1.48,2.23-2.16a8.16,8.16,0,0,0-.25-3.47c-.46-1.89-1.42-4.51-3.2-5.56.33-.07,4.22.3,4.52.17a35.21,35.21,0,0,0-3.09-2.73A10.41,10.41,0,0,0,86.6,116.19Z"/><path class="cls-12" d="M156.39,120.19a5.87,5.87,0,0,1,4.5,2.08c1.86,2.4-.14,5.67-1.73,7.23a18.32,18.32,0,0,1-3.73,3.2,57,57,0,0,1-5.62,2.11c-1,.36-1.89-1.71-2-2.4a8,8,0,0,1,.64-3.42c.67-1.83,1.92-4.32,3.82-5.16-.33-.11-4.24-.18-4.52-.35a35.56,35.56,0,0,1,3.39-2.36A10.4,10.4,0,0,1,156.39,120.19Z"/><path class="cls-16" d="M237,121.75a5.89,5.89,0,0,0-4.61,1.84c-2,2.3-.16,5.67,1.35,7.32a18.1,18.1,0,0,0,3.56,3.38,53.91,53.91,0,0,0,5.49,2.4c1,.42,2-1.6,2.09-2.29a8.13,8.13,0,0,0-.45-3.45c-.58-1.86-1.7-4.41-3.55-5.35.33-.09,4.24,0,4.53-.11A34.7,34.7,0,0,0,242.1,123,10.32,10.32,0,0,0,237,121.75Z"/><path class="cls-16" d="M306.85,121.43a5.92,5.92,0,0,1,4.63,1.8c2,2.28.2,5.67-1.29,7.33a18.38,18.38,0,0,1-3.52,3.42,55.29,55.29,0,0,1-5.48,2.45c-1,.42-2-1.59-2.11-2.27a8.1,8.1,0,0,1,.43-3.45c.56-1.87,1.66-4.43,3.49-5.39-.33-.09-4.24.08-4.52-.07a34.62,34.62,0,0,1,3.23-2.56A10.52,10.52,0,0,1,306.85,121.43Z"/><path class="cls-12" d="M327.42,120.85a5.9,5.9,0,0,0-4.68,1.65c-2.07,2.22-.38,5.67,1.05,7.37a18.46,18.46,0,0,0,3.42,3.53,57.3,57.3,0,0,0,5.4,2.62c1,.46,2-1.52,2.18-2.2a8.18,8.18,0,0,0-.32-3.47c-.5-1.88-1.52-4.48-3.32-5.49.33-.08,4.23.21,4.52.07a37,37,0,0,0-3.14-2.66A10.51,10.51,0,0,0,327.42,120.85Z"/><path class="cls-8" d="M492.13,117.58c2.42,0,4.75.46,6.48,2.34,2.86,3.1.47,7.86-1.54,10.21-1.37,1.6-3,3.71-4.78,4.86-2.24,1.44-5.11,2.38-7.53,3.59-1.37.62-2.82-2.14-3-3.09a11.39,11.39,0,0,1,.48-4.81c.71-2.61,2.16-6.2,4.68-7.59-.46-.11-5.88.25-6.29,0a51.58,51.58,0,0,1,4.4-3.66A14.49,14.49,0,0,1,492.13,117.58Z"/><path class="cls-40" d="M125.63,181.17l-5.26-.38.78-10.79-10.2-.76c-.27,3.6-.55,7.2-.82,10.79l-5.26-.4,2-25.19,5.2.41-.78,10.2,10.18.76c.25-3.4.49-6.81.74-10.21l5.2.37Q126.51,168.57,125.63,181.17Z"/><path class="cls-40" d="M151.89,170.78a15.14,15.14,0,0,1-1.72,6.45,9.91,9.91,0,0,1-4.06,4.1,11.34,11.34,0,0,1-11.35-.71,10,10,0,0,1-3.56-4.56,14.75,14.75,0,0,1-.94-6.52l.08-1.25a15.11,15.11,0,0,1,1.8-6.46,10.13,10.13,0,0,1,4.09-4.09,11.2,11.2,0,0,1,11.22.72A10,10,0,0,1,151,163a15.15,15.15,0,0,1,1,6.62Zm-5.23-1.46a10.61,10.61,0,0,0-1.06-6.12,5.06,5.06,0,0,0-8.11-.54,10.43,10.43,0,0,0-1.84,5.87l-.08,1.23a10.6,10.6,0,0,0,1,6.08,4.69,4.69,0,0,0,4,2.4,4.63,4.63,0,0,0,4.18-1.8,10.57,10.57,0,0,0,1.8-5.89Z"/><path class="cls-40" d="M160.75,174.45c-.16,3-.33,5.92-.49,8.88L155,183q.72-12.61,1.45-25.22c3.28.19,6.57.37,9.85.54a11.67,11.67,0,0,1,4.95,1.3,7.68,7.68,0,0,1,3.18,3.13,8.23,8.23,0,0,1,.95,4.41,7.21,7.21,0,0,1-2.85,5.72,10.67,10.67,0,0,1-7.19,1.78Zm.23-4.21,4.67.25a4.63,4.63,0,0,0,3.22-.8A3.53,3.53,0,0,0,170.1,167a3.92,3.92,0,0,0-3.9-4.39l-4.78-.26C161.27,165,161.13,167.6,161,170.24Z"/><path class="cls-40" d="M194,174c-3.36-.14-6.71-.28-10.06-.44-.1,2.26-.21,4.51-.31,6.76q5.92.27,11.84.51c-.06,1.39-.12,2.79-.17,4.18q-8.57-.34-17.12-.76l1.2-25.23q8.46.4,16.9.75c0,1.4-.11,2.81-.17,4.21l-11.71-.5-.28,6,10,.44C194.09,171.28,194,172.64,194,174Z"/><path class="cls-40" d="M223,175.64l-10.06-.31q-.18,5.16-.34,10.31c-1.76,0-3.51-.11-5.27-.18q.45-12.61.89-25.24,8.24.28,16.46.52l-.12,4.22c-3.76-.11-7.51-.22-11.27-.35l-.21,6.52c3.34.11,6.69.22,10,.31Z"/><path class="cls-40" d="M248.2,174.5a14.9,14.9,0,0,1-1.45,6.51,9.88,9.88,0,0,1-3.89,4.26,10.57,10.57,0,0,1-5.73,1.41A10.68,10.68,0,0,1,231.5,185a10.07,10.07,0,0,1-3.74-4.41,14.74,14.74,0,0,1-1.21-6.48l0-1.25a15,15,0,0,1,1.52-6.52,10.08,10.08,0,0,1,3.92-4.26,11.22,11.22,0,0,1,11.24.26A10.07,10.07,0,0,1,247,166.8a15.06,15.06,0,0,1,1.22,6.57C248.22,173.75,248.21,174.12,248.2,174.5Zm-5.28-1.25a10.69,10.69,0,0,0-1.3-6.07,5.06,5.06,0,0,0-8.13-.21,10.49,10.49,0,0,0-1.6,5.94l0,1.23a10.75,10.75,0,0,0,1.29,6,5,5,0,0,0,8.19.26,10.66,10.66,0,0,0,1.56-6Z"/><path class="cls-40" d="M261.39,177.51l-4.18-.06q-.07,4.63-.13,9.25l-5.27-.08.42-25.26,9.39.14q4.49.06,6.9,2.07a6.92,6.92,0,0,1,2.38,5.66,7.75,7.75,0,0,1-1.16,4.3,7.65,7.65,0,0,1-3.44,2.72q2.68,5.19,5.41,10.37v.25l-5.65-.06Q263.72,182.16,261.39,177.51Zm-4.12-4.27,4.22.06a4.4,4.4,0,0,0,3.07-1,3.55,3.55,0,0,0,1.11-2.74,3.83,3.83,0,0,0-1-2.82,4.21,4.21,0,0,0-3.11-1.06l-4.19-.06C257.34,168.19,257.31,170.71,257.27,173.24Z"/><path class="cls-40" d="M301.79,165.88l-7.76,0,0,21h-5.27q0-10.51,0-21l-7.65,0c0-1.41,0-2.81,0-4.22q10.29,0,20.59,0C301.78,163.07,301.78,164.47,301.79,165.88Z"/><path class="cls-40" d="M325.68,186.7l-5.26.07c-.05-3.61-.09-7.22-.14-10.83-3.4,0-6.81.08-10.22.1l.09,10.83-5.27,0q-.06-12.63-.14-25.26l5.21,0c0,3.41.05,6.82.08,10.24l10.2-.11-.12-10.23,5.2-.07Z"/><path class="cls-40" d="M345.4,175.38l-10.06.21c0,2.25.09,4.51.13,6.76q5.91-.1,11.84-.25c0,1.39.07,2.79.1,4.18q-8.57.21-17.13.34-.21-12.62-.41-25.25,8.44-.15,16.91-.34c0,1.4.06,2.81.1,4.21q-5.86.15-11.73.25c0,2,.08,4,.11,6l10.05-.21Z"/><path class="cls-40" d="M379.07,178q1.38-9,2.73-18.09l5.19-.21q-2.28,12.74-4.63,25.46l-5.3.2q-2.38-8.37-4.74-16.74-1.77,8.52-3.58,17l-5.29.17q-3.22-12.54-6.38-25.09l5.19-.15q2,8.91,4,17.82,1.81-9,3.6-18.06l4.41-.15Q376.65,169.13,379.07,178Z"/><path class="cls-40" d="M411.23,171.84a15.25,15.25,0,0,1-1,6.6,10,10,0,0,1-3.59,4.52,11.37,11.37,0,0,1-11.35.54,10,10,0,0,1-4-4.14A14.64,14.64,0,0,1,389.6,173l-.06-1.25a15.18,15.18,0,0,1,1.08-6.62,10,10,0,0,1,3.62-4.51,10.38,10.38,0,0,1,5.54-1.77,10.52,10.52,0,0,1,5.69,1.25,10,10,0,0,1,4,4.16,15.19,15.19,0,0,1,1.68,6.47Zm-5.36-.88a10.63,10.63,0,0,0-1.72-6,5.07,5.07,0,0,0-8.13.35,10.51,10.51,0,0,0-1.18,6l.06,1.23a10.6,10.6,0,0,0,1.69,5.93,4.69,4.69,0,0,0,4.23,2,4.61,4.61,0,0,0,4-2.25,10.62,10.62,0,0,0,1.15-6.05Z"/><path class="cls-40" d="M424.59,173.93l-4.17.24q.24,4.61.5,9.23l-5.26.28-1.32-25.22,9.38-.52c3-.16,5.32.36,7,1.6a6.85,6.85,0,0,1,2.77,5.48,7,7,0,0,1-4.11,7.32q3.06,5,6.13,10v.24l-5.64.34Q427.23,178.42,424.59,173.93Zm-4.4-4,4.21-.24a4.32,4.32,0,0,0,3-1.17,3.54,3.54,0,0,0,.92-2.81,3.82,3.82,0,0,0-1.18-2.74,4.22,4.22,0,0,0-3.18-.85l-4.19.24Z"/><path class="cls-40" d="M443.56,177.86c3.72-.24,7.43-.48,11.14-.74.1,1.39.2,2.78.29,4.17q-8.21.57-16.42,1.08L437,157.16l5.2-.33Z"/><path class="cls-40" d="M458,181.08q-.9-12.6-1.78-25.2l7.76-.56a12,12,0,0,1,6.07,1.05,10.52,10.52,0,0,1,4.43,3.94,13,13,0,0,1,2,6.15l.09,1.16a13,13,0,0,1-1,6.36,10.43,10.43,0,0,1-3.79,4.56,12.15,12.15,0,0,1-5.89,2Zm3.73-21.37q.6,8.41,1.22,16.82l2.53-.18a5.77,5.77,0,0,0,4.56-2.34,8.94,8.94,0,0,0,1.22-5.82c0-.44-.07-.89-.1-1.33a9.14,9.14,0,0,0-2.05-5.7,5.64,5.64,0,0,0-4.82-1.63Z"/></g></g></g></svg>