<svg width="23" height="24" viewBox="0 0 23 24" fill="none" xmlns="http://www.w3.org/2000/svg">
<path d="M21.7304 4.24134e-08H1.26852C0.567841 0.000366253 -0.000175435 0.593445 4.06462e-08 1.32477V22.6763C0.000350993 23.4075 0.568718 24.0002 1.26957 24H21.7304C22.4315 24.0002 22.9998 23.4073 23 22.6758C23 22.6756 23 22.6754 23 22.6752V1.32367C22.9996 0.592529 22.4313 -0.000183063 21.7304 4.24134e-08Z" fill="#0983AC"/>
<path d="M13.5799 24V14.7188H16.5784L17.0276 11.0859H13.5799V8.77222C13.5799 7.72284 13.8591 7.00781 15.3011 7.00781H17.1287V3.7674C16.8108 3.72327 15.7198 3.62457 14.4504 3.62457C11.8 3.62457 9.98614 5.31207 9.98614 8.41242V11.0859H6.99884V14.7188H9.98614V24H13.5799Z" fill="white"/>
</svg>
