<svg width="24" height="24" viewBox="0 0 24 24" fill="none" xmlns="http://www.w3.org/2000/svg">
<path d="M17.3766 0H6.62295C2.97106 0 0 2.9712 0 6.62309V17.3768C0 21.0288 2.97106 23.9999 6.62295 23.9999H17.3766C21.0288 23.9999 23.9999 21.0287 23.9999 17.3768V6.62309C24 2.9712 21.0288 0 17.3766 0ZM21.8706 17.3768C21.8706 19.8547 19.8547 21.8705 17.3768 21.8705H6.62295C4.1452 21.8706 2.12938 19.8547 2.12938 17.3768V6.62309C2.12938 4.14534 4.1452 2.12938 6.62295 2.12938H17.3766C19.8545 2.12938 21.8705 4.14534 21.8705 6.62309V17.3768H21.8706Z" fill="#0983AC"/>
<path d="M11.9999 5.81606C8.5899 5.81606 5.81573 8.59022 5.81573 12.0002C5.81573 15.4101 8.5899 18.1841 11.9999 18.1841C15.4099 18.1841 18.184 15.4101 18.184 12.0002C18.184 8.59022 15.4099 5.81606 11.9999 5.81606ZM11.9999 16.0546C9.76418 16.0546 7.94512 14.2358 7.94512 12.0001C7.94512 9.76422 9.76404 7.9453 11.9999 7.9453C14.2357 7.9453 16.0547 9.76422 16.0547 12.0001C16.0547 14.2358 14.2356 16.0546 11.9999 16.0546Z" fill="#0983AC"/>
<path d="M18.4434 4.01048C18.0332 4.01048 17.6302 4.17657 17.3404 4.46759C17.0493 4.75719 16.8819 5.16035 16.8819 5.57203C16.8819 5.98243 17.0494 6.38546 17.3404 6.67647C17.63 6.96607 18.0332 7.13358 18.4434 7.13358C18.8551 7.13358 19.2569 6.96607 19.5479 6.67647C19.8389 6.38546 20.005 5.98229 20.005 5.57203C20.005 5.16035 19.8389 4.75719 19.5479 4.46759C19.2583 4.17657 18.8551 4.01048 18.4434 4.01048Z" fill="#0983AC"/>
</svg>
