<svg width="27" height="27" viewBox="0 0 27 27" fill="none" xmlns="http://www.w3.org/2000/svg">
<path d="M25.9259 7.1729C25.6271 6.06251 24.7517 5.18726 23.6415 4.88825C21.6131 4.33316 13.4997 4.33316 13.4997 4.33316C13.4997 4.33316 5.38651 4.33316 3.35816 4.86709C2.26933 5.1659 1.37252 6.06271 1.07371 7.1729C0.539978 9.20105 0.539978 13.4073 0.539978 13.4073C0.539978 13.4073 0.539978 17.6346 1.07371 19.6416C1.37272 20.7518 2.24797 21.6273 3.35836 21.9263C5.40787 22.4814 13.4999 22.4814 13.4999 22.4814C13.4999 22.4814 21.6131 22.4814 23.6415 21.9474C24.7519 21.6486 25.6271 20.7732 25.9261 19.663C26.4599 17.6346 26.4599 13.4286 26.4599 13.4286C26.4599 13.4286 26.4812 9.20105 25.9259 7.1729Z" fill="#0983AC"/>
<path d="M10.9165 17.2932L17.6633 13.4073L10.9165 9.52142V17.2932Z" fill="white"/>
</svg>
